<svg version="1.1" xmlns="http://www.w3.org/2000/svg" viewBox="0 0 3747.5205890925226 2463.4813469509113" width="11242.561767277568" height="7390.444040852733">
  <!-- svg-source:excalidraw -->
  
  <defs>
    <style>
      @font-face {
        font-family: "Virgil";
        src: url("https://excalidraw.com/Virgil.woff2");
      }
      @font-face {
        font-family: "Cascadia";
        src: url("https://excalidraw.com/Cascadia.woff2");
      }
    </style>
  </defs>
  <rect x="0" y="0" width="3747.5205890925226" height="2463.4813469509113" fill="#ffffff"></rect><g stroke-linecap="round" transform="translate(10 11.948773448773295) rotate(0 604.5 372)"><path d="M0.39 -0.37 C431.76 -1.91, 863.13 -1.57, 1208.48 -0.31 M0.21 -0.03 C352.01 3.55, 703.88 3.14, 1209.19 0.11 M1208.79 -0.01 C1209.89 227.49, 1209.69 455.94, 1208.3 744.32 M1208.95 -0.38 C1206.81 209.47, 1207.01 419.2, 1208.69 743.74 M1208.39 744.08 C917.43 747.95, 626.21 748.01, 0.49 743.86 M1209.12 744.1 C826.35 744.2, 443.64 744.22, -0.39 744.24 M0.54 743.37 C-0.7 537.2, -1.66 331.1, -0.32 0.53 M0.28 744.01 C2.53 453.8, 2.73 163.47, -0.16 0.38" stroke="#000000" stroke-width="1" fill="none"></path></g><g transform="translate(96.5 171.9487734487733) rotate(0 26 14.5)"><text x="0" y="20" font-family="Virgil, Segoe UI Emoji" font-size="20px" fill="#000000" text-anchor="start" style="white-space: pre;" direction="ltr">Calls</text></g><g transform="translate(92.5 241.9487734487733) rotate(0 30.5 14.5)"><text x="0" y="20" font-family="Virgil, Segoe UI Emoji" font-size="20px" fill="#000000" text-anchor="start" style="white-space: pre;" direction="ltr">Users</text></g><g stroke-linecap="round"><g transform="translate(244.5 11.448773448773295) rotate(0 -0.49288046660836926 372.2697550554388)"><path d="M-0.17 0.31 C-0.1 124.26, 0.76 619.92, 0.73 744.06 M-1.72 -0.57 C-1.78 123.47, 0.1 620.59, 0.17 745.11" stroke="#000000" stroke-width="1" fill="none"></path></g></g><g transform="translate(89 317.9487734487733) rotate(0 35.5 14.5)"><text x="0" y="20" font-family="Virgil, Segoe UI Emoji" font-size="20px" fill="#000000" text-anchor="start" style="white-space: pre;" direction="ltr">Import</text></g><g stroke-linecap="round" transform="translate(36.5 154.4487734487733) rotate(0 94 29.5)"><path d="M14.75 0 M14.75 0 C65.7 0.91, 115.92 0.01, 173.25 0 M14.75 0 C55.87 1.31, 98.53 0.45, 173.25 0 M173.25 0 C184.76 -1.17, 187.33 5.5, 188 14.75 M173.25 0 C185.37 0.78, 190.21 3.32, 188 14.75 M188 14.75 C189.31 22.02, 186.07 27.36, 188 44.25 M188 14.75 C187.45 22.33, 189.09 28.37, 188 44.25 M188 44.25 C188.58 54.44, 183 58.9, 173.25 59 M188 44.25 C189.89 56.34, 182.03 60.58, 173.25 59 M173.25 59 C139.06 60.92, 105.34 61.62, 14.75 59 M173.25 59 C118.66 58.78, 62.45 58.84, 14.75 59 M14.75 59 C4.46 57.37, 1.13 55.63, 0 44.25 M14.75 59 C6.16 57.02, -1.88 53.12, 0 44.25 M0 44.25 C-2.04 36.41, 1.49 26.22, 0 14.75 M0 44.25 C0.69 38.81, 0.89 31.38, 0 14.75 M0 14.75 C0.91 3.56, 3.82 0.83, 14.75 0 M0 14.75 C-2.24 6.38, 6.66 0.9, 14.75 0" stroke="#000000" stroke-width="1" fill="none"></path></g><g stroke-linecap="round" transform="translate(277.5 246.4487734487733) rotate(0 450 237.5)"><path d="M-0.71 -1.06 C257.87 0.62, 518.49 2.17, 900.35 1.42 M-0.48 -0.59 C276.16 5.04, 553.67 4.36, 899.79 -0.29 M899.67 -1.59 C903.67 126.03, 904.1 249.68, 900.93 474.16 M900.57 0.77 C900.45 135.05, 900.22 269.14, 899.55 474.49 M900 474.99 C687.73 476.26, 475.42 477.43, 1.47 475.42 M899.25 475.38 C654.5 475.59, 409.07 476.2, 0.21 474.81 M-0.83 476.41 C-0.86 290.36, 1.29 106.53, 1.38 -0.99 M-0.15 475.08 C-1.08 335.96, -1.58 196.86, 0.16 0.85" stroke="#000000" stroke-width="1" fill="none"></path></g><g transform="translate(287.5 44.448773448773295) rotate(0 47 25.5)"><text x="0" y="36" font-family="Virgil, Segoe UI Emoji" font-size="36px" fill="#495057" text-anchor="start" style="white-space: pre;" direction="ltr">Calls</text></g><g stroke-linecap="round" transform="translate(1043.3333333333333 168.28210678210655) rotate(0 56 23.5)"><path d="M11.75 0 M11.75 0 C30.17 0.02, 49.21 0.6, 100.25 0 M11.75 0 C32.91 -0.73, 54.9 -0.87, 100.25 0 M100.25 0 C109.62 -0.48, 113.66 2.15, 112 11.75 M100.25 0 C106.69 -0.66, 113.04 5.5, 112 11.75 M112 11.75 C110.93 17.33, 112.29 25.47, 112 35.25 M112 11.75 C111.8 16.17, 112.7 22.52, 112 35.25 M112 35.25 C111.42 44.84, 109.6 45.64, 100.25 47 M112 35.25 C113.09 41.71, 108.12 47.32, 100.25 47 M100.25 47 C68.22 47.1, 34.32 48.3, 11.75 47 M100.25 47 C78.3 47.68, 56.78 46.3, 11.75 47 M11.75 47 C3.31 47.77, 0.02 42.86, 0 35.25 M11.75 47 C1.82 48.18, -1.21 44.07, 0 35.25 M0 35.25 C-1.25 28.62, 1.76 21.09, 0 11.75 M0 35.25 C-0.02 25.67, -0.38 18.67, 0 11.75 M0 11.75 C0.13 2.02, 4.3 1.98, 11.75 0 M0 11.75 C1.18 3.26, 4.34 1.91, 11.75 0" stroke="#343a40" stroke-width="2" fill="none"></path></g><g transform="translate(1062.5 176.9487734487733) rotate(0 32 14.5)"><text x="32" y="20" font-family="Virgil, Segoe UI Emoji" font-size="20px" fill="#343a40" text-anchor="middle" style="white-space: pre;" direction="ltr">+ New</text></g><g stroke-linecap="round"><g transform="translate(278.5 321.4487734487733) rotate(0 450.03239507600665 0.12447113588899583)"><path d="M-0.71 -0.31 C274.93 0.74, 549.22 -0.05, 900.78 -0.21 M0.09 -0.18 C210.56 0.63, 422.25 0.92, 899.97 -0.06" stroke="#495057" stroke-width="2" fill="none"></path></g></g><g stroke-linecap="round"><g stroke-opacity="0.5" fill-opacity="0.5" transform="translate(278.5 381.4487734487733) rotate(0 450.0000000000001 0)"><path d="M0 0 C359.54 0, 719.09 0, 900 0" stroke="#495057" stroke-width="1.5" fill="none" stroke-dasharray="8 9"></path></g></g><g stroke-linecap="round"><g stroke-opacity="0.5" fill-opacity="0.5" transform="translate(278.5 440.4487734487733) rotate(0 450 0)"><path d="M0 0 C243.03 0, 486.06 0, 900 0" stroke="#495057" stroke-width="1.5" fill="none" stroke-dasharray="8 9"></path></g></g><g stroke-linecap="round"><g stroke-opacity="0.5" fill-opacity="0.5" transform="translate(283.5 497.4487734487733) rotate(0 450 0)"><path d="M0 0 C204.01 0, 408.02 0, 900 0" stroke="#495057" stroke-width="1.5" fill="none" stroke-dasharray="8 9"></path></g></g><g stroke-linecap="round"><g stroke-opacity="0.5" fill-opacity="0.5" transform="translate(280.5 612.4487734487733) rotate(0 450 0)"><path d="M0 0 C193.52 0, 387.04 0, 900 0" stroke="#495057" stroke-width="1.5" fill="none" stroke-dasharray="8 9"></path></g></g><g stroke-linecap="round"><g stroke-opacity="0.5" fill-opacity="0.5" transform="translate(279.5 665.4487734487733) rotate(0 450 0)"><path d="M0 0 C262.83 0, 525.66 0, 900 0" stroke="#495057" stroke-width="1.5" fill="none" stroke-dasharray="8 9"></path></g></g><g transform="translate(310.5 276.4487734487733) rotate(0 7 11.5)"><text x="0" y="16" font-family="Virgil, Segoe UI Emoji" font-size="16px" fill="#343a40" text-anchor="start" style="white-space: pre;" direction="ltr">#</text></g><g transform="translate(385.5 275.9487734487733) rotate(0 19.5 11.5)"><text x="0" y="16" font-family="Virgil, Segoe UI Emoji" font-size="16px" fill="#343a40" text-anchor="start" style="white-space: pre;" direction="ltr">User</text></g><g transform="translate(512.5 276.9487734487733) rotate(0 24 11.5)"><text x="0" y="16" font-family="Virgil, Segoe UI Emoji" font-size="16px" fill="#343a40" text-anchor="start" style="white-space: pre;" direction="ltr">Client</text></g><g transform="translate(651.5 273.9487734487733) rotate(0 20.5 11.5)"><text x="0" y="16" font-family="Virgil, Segoe UI Emoji" font-size="16px" fill="#343a40" text-anchor="start" style="white-space: pre;" direction="ltr">Type</text></g><g transform="translate(789 275.9487734487733) rotate(0 37.5 11.5)"><text x="0" y="16" font-family="Virgil, Segoe UI Emoji" font-size="16px" fill="#343a40" text-anchor="start" style="white-space: pre;" direction="ltr">Duration</text></g><g transform="translate(942 275.9487734487733) rotate(0 23 11.5)"><text x="0" y="16" font-family="Virgil, Segoe UI Emoji" font-size="16px" fill="#343a40" text-anchor="start" style="white-space: pre;" direction="ltr">Score</text></g><g transform="translate(1082.5 275.9487734487733) rotate(0 22.5 11.5)"><text x="0" y="16" font-family="Virgil, Segoe UI Emoji" font-size="16px" fill="#343a40" text-anchor="start" style="white-space: pre;" direction="ltr">Date</text></g><g stroke-linecap="round"><g transform="translate(369.5 354.4487734487733) rotate(0 338.5 0)"><path d="M0 0 C262.72 0, 525.43 0, 677 0" stroke="#495057" stroke-width="4.5" fill="none" stroke-dasharray="8 12"></path></g></g><g stroke-linecap="round"><g transform="translate(372 412.4487734487733) rotate(0 282.5 0)"><path d="M0 0 C148.68 0, 297.37 0, 565 0" stroke="#495057" stroke-width="4.5" fill="none" stroke-dasharray="8 12"></path></g></g><g stroke-linecap="round"><g transform="translate(373 473.4487734487733) rotate(0 338.5 0)"><path d="M0 0 C247.04 0, 494.08 0, 677 0" stroke="#495057" stroke-width="4.5" fill="none" stroke-dasharray="8 12"></path></g></g><g stroke-linecap="round"><g transform="translate(372 529.4487734487733) rotate(0 338.5 0)"><path d="M0 0 C189.96 0, 379.93 0, 677 0" stroke="#495057" stroke-width="4.5" fill="none" stroke-dasharray="8 12"></path></g></g><g stroke-linecap="round"><g transform="translate(371 587.4487734487733) rotate(0 338.5 0)"><path d="M0 0 C163.94 0, 327.88 0, 677 0" stroke="#495057" stroke-width="4.5" fill="none" stroke-dasharray="8 12"></path></g></g><g stroke-linecap="round"><g transform="translate(371 642.4487734487733) rotate(0 338.5 0)"><path d="M0 0 C224.94 0, 449.87 0, 677 0" stroke="#495057" stroke-width="4.5" fill="none" stroke-dasharray="8 12"></path></g></g><g stroke-linecap="round"><g transform="translate(373 696.4487734487733) rotate(0 338.5 0)"><path d="M0 0 C149.44 0, 298.88 0, 677 0" stroke="#495057" stroke-width="4.5" fill="none" stroke-dasharray="8 12"></path></g></g><g stroke-linecap="round"><g stroke-opacity="0.5" fill-opacity="0.5" transform="translate(279.5 558.4487734487733) rotate(0 450 0)"><path d="M0 0 C334.85 0, 669.7 0, 900 0" stroke="#495057" stroke-width="1.5" fill="none" stroke-dasharray="8 9"></path></g></g><g stroke-opacity="0.9" fill-opacity="0.9" transform="translate(981.5 402.9487734487733) rotate(0 28.5 11.5)"><text x="0" y="16" font-family="Virgil, Segoe UI Emoji" font-size="16px" fill="#495057" text-anchor="start" style="white-space: pre;" direction="ltr">Delete</text></g><g stroke-opacity="0.9" fill-opacity="0.9" transform="translate(1103 401.9487734487733) rotate(0 16.5 11.5)"><text x="0" y="16" font-family="Virgil, Segoe UI Emoji" font-size="16px" fill="#495057" text-anchor="start" style="white-space: pre;" direction="ltr">View</text></g><g stroke-linecap="round" transform="translate(14 850.4487734487733) rotate(0 604.5 372)"><path d="M0.19 -0.69 C296.09 3.4, 593.29 3.06, 1209.67 -0.46 M-0.25 -0.39 C414.43 3.35, 829.42 3.39, 1209.12 0.1 M1209.62 -0.69 C1209.44 247.19, 1209.41 495.55, 1208.79 744.32 M1209.33 0.22 C1207.08 202.06, 1206.5 404.11, 1209.13 744 M1209.58 743.62 C813.32 748.74, 417.13 749.4, 0.18 744.12 M1209.31 744.05 C765.72 744.02, 322.52 744.23, 0.02 743.66 M0.62 743.94 C2.74 477.79, 2.58 210.18, -0.65 -0.55 M-0.3 743.88 C1.05 538.43, 0.51 332.37, 0.24 0.22" stroke="#000000" stroke-width="1" fill="none"></path></g><g transform="translate(100.5 1010.4487734487733) rotate(0 26 14.5)"><text x="0" y="20" font-family="Virgil, Segoe UI Emoji" font-size="20px" fill="#000000" text-anchor="start" style="white-space: pre;" direction="ltr">Calls</text></g><g transform="translate(96.5 1082.4487734487734) rotate(0 30.5 14.5)"><text x="0" y="20" font-family="Virgil, Segoe UI Emoji" font-size="20px" fill="#000000" text-anchor="start" style="white-space: pre;" direction="ltr">Users</text></g><g stroke-linecap="round"><g transform="translate(248.5 849.9487734487733) rotate(0 0.787168052019581 372.948980614869)"><path d="M-0.25 0.98 C-0.1 125.39, 0.96 621.57, 1.17 745.46 M1.82 0.44 C1.89 124.58, 1.01 619.44, 0.84 743.57" stroke="#000000" stroke-width="1" fill="none"></path></g></g><g transform="translate(93 1156.4487734487734) rotate(0 35.5 14.5)"><text x="0" y="20" font-family="Virgil, Segoe UI Emoji" font-size="20px" fill="#000000" text-anchor="start" style="white-space: pre;" direction="ltr">Import</text></g><g stroke-linecap="round" transform="translate(39.5 1065.9487734487734) rotate(0 90 29.5)"><path d="M14.75 0 M14.75 0 C57.55 0.22, 97.67 -0.61, 165.25 0 M14.75 0 C61.21 0.4, 109.43 1.24, 165.25 0 M165.25 0 C174.88 0.59, 180.5 5.57, 180 14.75 M165.25 0 C174.95 1.61, 181.78 2.92, 180 14.75 M180 14.75 C181.69 25.36, 180.71 36.43, 180 44.25 M180 14.75 C180.83 22.01, 180.44 27.3, 180 44.25 M180 44.25 C180.62 54.76, 175.09 59.55, 165.25 59 M180 44.25 C178.34 56.28, 176.75 57.9, 165.25 59 M165.25 59 C122.08 58.49, 75.35 59.37, 14.75 59 M165.25 59 C108.86 60.22, 52.66 60.48, 14.75 59 M14.75 59 C6.9 59.12, -1.69 55.26, 0 44.25 M14.75 59 C3.08 61.19, 1.79 53.91, 0 44.25 M0 44.25 C0.06 32.43, -1.67 23.39, 0 14.75 M0 44.25 C-0.16 36.67, 0.6 27.36, 0 14.75 M0 14.75 C-0.54 6.11, 6.02 1.86, 14.75 0 M0 14.75 C-0.69 5.55, 3.02 0.58, 14.75 0" stroke="#000000" stroke-width="1" fill="none"></path></g><g stroke-linecap="round" transform="translate(281.5 1084.9487734487734) rotate(0 450 237.5)"><path d="M1.35 -0.92 C343.87 -2.49, 685.22 -3.74, 898.43 -0.88 M0.23 0.2 C251.85 0.69, 503.75 1.36, 899.31 0.62 M899.54 0.7 C902.56 127.72, 904.71 259.42, 900.98 475.93 M900.3 0 C896.38 149.8, 896.99 301.51, 899.58 475 M900.36 475.24 C618.75 483.17, 335.31 483.19, 0.22 475.09 M900.05 474.32 C589.7 481.51, 279.22 482.77, -0.06 475.37 M-1.44 473.78 C-1.49 286.34, -1.86 97.4, -0.51 0.66 M0.53 475.49 C4.92 309.96, 4.34 144.72, 0.22 0.65" stroke="#000000" stroke-width="1" fill="none"></path></g><g transform="translate(290.5 881.9487734487733) rotate(0 55 25.5)"><text x="0" y="36" font-family="Virgil, Segoe UI Emoji" font-size="36px" fill="#495057" text-anchor="start" style="white-space: pre;" direction="ltr">Users</text></g><g stroke-linecap="round"><g transform="translate(282.5 1159.9487734487734) rotate(0 449.8936192987487 -0.11745540180959324)"><path d="M-0.57 -0.5 C217.27 -0.99, 435.93 -0.31, 899.92 0.23 M0.28 0.31 C291.98 0.52, 584.55 0.5, 900.35 -0.1" stroke="#495057" stroke-width="2" fill="none"></path></g></g><g stroke-linecap="round"><g stroke-opacity="0.5" fill-opacity="0.5" transform="translate(282.5 1219.9487734487734) rotate(0 450 0)"><path d="M0 0 C308.67 0, 617.35 0, 900 0" stroke="#495057" stroke-width="1.5" fill="none" stroke-dasharray="8 9"></path></g></g><g stroke-linecap="round"><g stroke-opacity="0.5" fill-opacity="0.5" transform="translate(282.5 1278.9487734487734) rotate(0 450 0)"><path d="M0 0 C283.71 0, 567.42 0, 900 0" stroke="#495057" stroke-width="1.5" fill="none" stroke-dasharray="8 9"></path></g></g><g stroke-linecap="round"><g stroke-opacity="0.5" fill-opacity="0.5" transform="translate(287.5 1335.9487734487734) rotate(0 450 0)"><path d="M0 0 C206.13 0, 412.26 0, 900 0" stroke="#495057" stroke-width="1.5" fill="none" stroke-dasharray="8 9"></path></g></g><g stroke-linecap="round"><g stroke-opacity="0.5" fill-opacity="0.5" transform="translate(284.5 1450.9487734487734) rotate(0 450 0)"><path d="M0 0 C213.57 0, 427.14 0, 900 0" stroke="#495057" stroke-width="1.5" fill="none" stroke-dasharray="8 9"></path></g></g><g stroke-linecap="round"><g stroke-opacity="0.5" fill-opacity="0.5" transform="translate(283.5 1503.9487734487734) rotate(0 450 0)"><path d="M0 0 C181.87 0, 363.75 0, 900 0" stroke="#495057" stroke-width="1.5" fill="none" stroke-dasharray="8 9"></path></g></g><g transform="translate(314.5 1114.9487734487734) rotate(0 7 11.5)"><text x="0" y="16" font-family="Virgil, Segoe UI Emoji" font-size="16px" fill="#343a40" text-anchor="start" style="white-space: pre;" direction="ltr">#</text></g><g transform="translate(389.5 1114.4487734487734) rotate(0 22 11.5)"><text x="0" y="16" font-family="Virgil, Segoe UI Emoji" font-size="16px" fill="#343a40" text-anchor="start" style="white-space: pre;" direction="ltr">Name</text></g><g stroke-linecap="round"><g transform="translate(373.5 1192.9487734487734) rotate(0 338.5 0)"><path d="M0 0 C199.15 0, 398.31 0, 677 0" stroke="#495057" stroke-width="4.5" fill="none" stroke-dasharray="8 12"></path></g></g><g stroke-linecap="round"><g transform="translate(377 1250.9487734487734) rotate(0 327 0)"><path d="M0 0 C241.95 0, 483.91 0, 654 0" stroke="#495057" stroke-width="4.5" fill="none" stroke-dasharray="8 12"></path></g></g><g stroke-linecap="round"><g transform="translate(377 1311.9487734487734) rotate(0 338.5 0)"><path d="M0 0 C255.46 0, 510.92 0, 677 0" stroke="#495057" stroke-width="4.5" fill="none" stroke-dasharray="8 12"></path></g></g><g stroke-linecap="round"><g transform="translate(376 1367.9487734487734) rotate(0 338.5 0)"><path d="M0 0 C144.34 0, 288.67 0, 677 0" stroke="#495057" stroke-width="4.5" fill="none" stroke-dasharray="8 12"></path></g></g><g stroke-linecap="round"><g transform="translate(375 1425.9487734487734) rotate(0 338.5 0)"><path d="M0 0 C255.37 0, 510.73 0, 677 0" stroke="#495057" stroke-width="4.5" fill="none" stroke-dasharray="8 12"></path></g></g><g stroke-linecap="round"><g transform="translate(375 1480.9487734487734) rotate(0 338.5 0)"><path d="M0 0 C183.84 0, 367.67 0, 677 0" stroke="#495057" stroke-width="4.5" fill="none" stroke-dasharray="8 12"></path></g></g><g stroke-linecap="round"><g transform="translate(377 1534.9487734487734) rotate(0 338.5 0)"><path d="M0 0 C252.59 0, 505.18 0, 677 0" stroke="#495057" stroke-width="4.5" fill="none" stroke-dasharray="8 12"></path></g></g><g stroke-linecap="round"><g stroke-opacity="0.5" fill-opacity="0.5" transform="translate(283.5 1396.9487734487734) rotate(0 450.0000000000001 0)"><path d="M0 0 C349.87 0, 699.74 0, 900 0" stroke="#495057" stroke-width="1.5" fill="none" stroke-dasharray="8 9"></path></g></g><g stroke-opacity="0.9" fill-opacity="0.9" transform="translate(1093 1240.4487734487734) rotate(0 16.5 11.5)"><text x="0" y="16" font-family="Virgil, Segoe UI Emoji" font-size="16px" fill="#495057" text-anchor="start" style="white-space: pre;" direction="ltr">View</text></g><g stroke-linecap="round"><g stroke-opacity="0.2" fill-opacity="0.2" transform="translate(1051.5 1221.9487734487734) rotate(0 0.5 28.5)"><path d="M0 0 C0.23 13.01, 0.46 26.03, 1 57 M0 0 C0.23 13, 0.46 25.99, 1 57" stroke="#495057" stroke-width="1" fill="none"></path></g></g><g stroke-linecap="round" transform="translate(16 1708.448773448773) rotate(0 604.5 372.0000000000001)"><path d="M-0.75 -0.09 C260.59 0.52, 522.99 0.38, 1208.37 -0.34 M0.31 0.29 C397.67 -3.54, 794.91 -3.24, 1209.19 -0.14 M1208.87 -0.07 C1211.92 236.26, 1210.87 474.6, 1208.58 744.2 M1209.22 -0.39 C1211.3 229.03, 1211.3 458.84, 1209.31 744.08 M1209.62 743.61 C813.26 748.04, 416.52 748.09, 0.18 744.78 M1209.06 743.78 C937.7 745.99, 666.62 746.01, -0.29 744.29 M-0.04 744.19 C2.5 560.79, 2.24 377.97, 0.42 0.64 M0.03 744.29 C-1.86 570.35, -1.72 397.63, -0.23 -0.29" stroke="#000000" stroke-width="1" fill="none"></path></g><g transform="translate(102.5 1868.4487734487734) rotate(0 26 14.5)"><text x="0" y="20" font-family="Virgil, Segoe UI Emoji" font-size="20px" fill="#000000" text-anchor="start" style="white-space: pre;" direction="ltr">Calls</text></g><g transform="translate(98.5 1938.4487734487734) rotate(0 30.5 14.5)"><text x="0" y="20" font-family="Virgil, Segoe UI Emoji" font-size="20px" fill="#000000" text-anchor="start" style="white-space: pre;" direction="ltr">Users</text></g><g stroke-linecap="round"><g transform="translate(250.5 1707.948773448773) rotate(0 0.12199954502284527 372.81345512460916)"><path d="M-0.83 0.75 C-0.46 125.03, 1.09 621.58, 1.07 745.53 M0.94 0.09 C1.34 124.03, 0.6 619.45, 0.69 743.69" stroke="#000000" stroke-width="1" fill="none"></path></g></g><g transform="translate(95 2014.4487734487734) rotate(0 35.5 14.5)"><text x="0" y="20" font-family="Virgil, Segoe UI Emoji" font-size="20px" fill="#000000" text-anchor="start" style="white-space: pre;" direction="ltr">Import</text></g><g stroke-linecap="round" transform="translate(39.5 1996.9487734487734) rotate(0 92 29.5)"><path d="M14.75 0 M14.75 0 C51.31 -2.96, 85.24 -0.81, 169.25 0 M14.75 0 C73.45 -0.21, 130.68 -0.34, 169.25 0 M169.25 0 C180.55 0.97, 183.28 5.29, 184 14.75 M169.25 0 C180.99 2.12, 183.62 4.73, 184 14.75 M184 14.75 C185.53 24.2, 184.25 35.91, 184 44.25 M184 14.75 C183.08 26.26, 183.25 37.14, 184 44.25 M184 44.25 C184.66 55.63, 179.48 59.55, 169.25 59 M184 44.25 C185.62 56.17, 180.88 57.89, 169.25 59 M169.25 59 C115.78 58.8, 65.78 56.83, 14.75 59 M169.25 59 C120.99 58.9, 73.66 59.08, 14.75 59 M14.75 59 C4.66 57.57, 1.43 53, 0 44.25 M14.75 59 C3.1 57.14, -0.12 54.62, 0 44.25 M0 44.25 C0.23 35.9, 1.65 24.1, 0 14.75 M0 44.25 C0.73 33.81, -0.69 23.31, 0 14.75 M0 14.75 C1.87 3.77, 3.46 0.59, 14.75 0 M0 14.75 C0.87 6.24, 4.19 -1.8, 14.75 0" stroke="#000000" stroke-width="1" fill="none"></path></g><g transform="translate(294.5 1742.948773448773) rotate(0 64 25.5)"><text x="0" y="36" font-family="Virgil, Segoe UI Emoji" font-size="36px" fill="#495057" text-anchor="start" style="white-space: pre;" direction="ltr">Import</text></g><g stroke-opacity="0.9" fill-opacity="0.9" transform="translate(420.34883757119655 2133.8298826145233) rotate(0 36.535433070866134 14.614173228346544)"><text x="36.53543307086613" y="20.228346456692904" font-family="Virgil, Segoe UI Emoji" font-size="20.377092903831986px" fill="#343a40" text-anchor="middle" style="white-space: pre;" direction="ltr">Upload</text></g><g stroke-opacity="0.9" fill-opacity="0.9" stroke-linecap="round" transform="translate(367.78571428571445 2106.8109781731814) rotate(0 350.8571428571428 38.81889763779532)"><path d="M19.41 0 M19.41 0 C233.97 -0.47, 447.79 -0.16, 682.3 0 M19.41 0 C264.79 1.48, 510.64 1.38, 682.3 0 M682.3 0 C695.41 -1.87, 699.97 6.75, 701.71 19.41 M682.3 0 C697.27 -1.02, 700.81 5.39, 701.71 19.41 M701.71 19.41 C700.28 30, 701.05 44.59, 701.71 58.23 M701.71 19.41 C702.03 29.63, 702.43 41.51, 701.71 58.23 M701.71 58.23 C700.61 71.94, 693.76 78.35, 682.3 77.64 M701.71 58.23 C703.41 72.82, 694.49 79.28, 682.3 77.64 M682.3 77.64 C472.87 79.52, 265.07 79.81, 19.41 77.64 M682.3 77.64 C541.55 79.08, 401.7 79.39, 19.41 77.64 M19.41 77.64 C6.85 76.78, -0.47 69.5, 0 58.23 M19.41 77.64 C8.06 77.64, -1.21 72.66, 0 58.23 M0 58.23 C1.25 47.05, 0.87 39.48, 0 19.41 M0 58.23 C0.37 49.17, 0 40.99, 0 19.41 M0 19.41 C-0.81 5.01, 6.07 1.05, 19.41 0 M0 19.41 C0.35 8.26, 6.72 -1.88, 19.41 0" stroke="#495057" stroke-width="2" fill="none"></path></g><g transform="translate(960.7834645669259 2133.2991671495593) rotate(0 36.0787401574803 14.614173228346544)"><text x="36.07874015748032" y="20.228346456692904" font-family="Virgil, Segoe UI Emoji" font-size="20.377092903832008px" fill="#343a40" text-anchor="middle" style="white-space: pre;" direction="ltr">Import</text></g><g stroke-linecap="round"><g stroke-opacity="0.9" fill-opacity="0.9" transform="translate(518.8114170961446 2107.7830677048746) rotate(0 0.14360861232432853 37.59409912686988)"><path d="M0.2 0.32 C-2.25 25.12, -2.32 48.54, 1.77 75.13 M0.35 0.05 C-0.58 22.69, 0.43 43.74, -0.43 75.12" stroke="#495057" stroke-width="2" fill="none"></path></g></g><g stroke-linecap="round"><g stroke-opacity="0.9" fill-opacity="0.9" transform="translate(931.6270410959023 2105.448899775339) rotate(0 -0.009434331816578378 38.09770256338834)"><path d="M1.1 0.48 C-0.9 16.27, 0.35 36.16, -0.82 75.06 M0.16 0.48 C-1.6 19.25, -1.53 38.64, 0.25 75.72" stroke="#495057" stroke-width="2" fill="none"></path></g></g><g stroke-opacity="0.5" fill-opacity="0.5" transform="translate(569.8779527559018 2135.3494947746867) rotate(0 147.51181102362193 13.24409448818892)"><text x="0" y="18.488188976377955" font-family="Virgil, Segoe UI Emoji" font-size="18.095750403442686px" fill="#495057" text-anchor="start" style="white-space: pre;" direction="ltr">Click upload to select a file...</text></g><g stroke-linecap="round"><g transform="translate(15.5 1822.4487734487734) rotate(0 604.8752115670592 0.19356568531452467)"><path d="M0.7 -0.65 C395.26 2.9, 790.58 2.89, 1209.75 0.63 M-0.07 -0.05 C401.95 -2.58, 802.9 -2.15, 1209.82 -0.08" stroke="#000000" stroke-width="1" fill="none"></path></g></g><g stroke-linecap="round"><g transform="translate(16.5 956.4487734487733) rotate(0 604.9037330094726 0.16328183066104884)"><path d="M-0.17 -0.21 C424.74 -4.31, 849.83 -4.22, 1209.75 0.48 M-0.2 0.3 C271.58 4.63, 543.26 4.5, 1210.01 0.29" stroke="#000000" stroke-width="1" fill="none"></path></g></g><g stroke-linecap="round"><g transform="translate(11.5 116.44877344877318) rotate(0 605.1500575724989 0.5520195380514394)"><path d="M0.7 -0.07 C346.61 -0.98, 693.95 -0.89, 1209.53 0.49 M0.1 0.36 C267.67 2.36, 535.97 2.2, 1210.2 0.09" stroke="#000000" stroke-width="1" fill="none"></path></g></g><g transform="translate(309.5 1993.4487734487734) rotate(0 19.5 14.5)"><text x="0" y="20" font-family="Virgil, Segoe UI Emoji" font-size="20px" fill="#343a40" text-anchor="start" style="white-space: pre;" direction="ltr">CSV</text></g><g stroke-linecap="round"><g transform="translate(377.74071237407634 2008.4487734487734) rotate(0 383.8728116147222 -0.11020282029312511)"><path d="M0.25 -0.73 C179.83 2.69, 361.51 2.4, 766.79 0.7 M0.24 0.23 C157.91 -2.82, 314.98 -2.89, 767.5 -0.16" stroke="#343a40" stroke-width="1" fill="none"></path></g></g><g stroke-linecap="round"><g stroke-opacity="0.2" fill-opacity="0.2" transform="translate(952 382.9487734487733) rotate(0 0.5 28.5)"><path d="M0 0 C0.33 18.98, 0.67 37.96, 1 57 M0 0 C0.21 12.25, 0.43 24.5, 1 57" stroke="#495057" stroke-width="1" fill="none"></path></g></g><g stroke-linecap="round"><g stroke-opacity="0.2" fill-opacity="0.2" transform="translate(1066 382.9487734487733) rotate(0 0.5 28.5)"><path d="M0 0 C0.27 15.47, 0.54 30.94, 1 57 M0 0 C0.22 12.26, 0.43 24.52, 1 57" stroke="#495057" stroke-width="1" fill="none"></path></g></g><g stroke-linecap="round" transform="translate(1257.75 11.448773448773295) rotate(0 604.5 372)"><path d="M-0.53 -0.33 C424.37 -2.6, 847.78 -3.16, 1208.32 0.03 M-0.1 -0.15 C463.04 -4.48, 926.86 -4.96, 1209.17 0.1 M1208.3 0.77 C1208.76 197.75, 1209.36 396.34, 1209.46 744.38 M1208.64 -0.08 C1206.86 271.21, 1207.25 541.75, 1208.62 743.97 M1208.27 744.69 C747.45 745.26, 287.05 745.68, 0.7 743.36 M1208.92 744.04 C853.01 743.5, 497.21 743.88, 0.09 743.76 M0.54 744.19 C-2.57 543.48, -3.28 343.51, 0.79 -0.25 M0.22 744.24 C-1.44 496.81, -1.35 249.07, -0.21 0.23" stroke="#000000" stroke-width="1" fill="none"></path></g><g transform="translate(1344.25 171.4487734487733) rotate(0 26 14.5)"><text x="0" y="20" font-family="Virgil, Segoe UI Emoji" font-size="20px" fill="#000000" text-anchor="start" style="white-space: pre;" direction="ltr">Calls</text></g><g transform="translate(1340.25 241.4487734487733) rotate(0 30.5 14.5)"><text x="0" y="20" font-family="Virgil, Segoe UI Emoji" font-size="20px" fill="#000000" text-anchor="start" style="white-space: pre;" direction="ltr">Users</text></g><g stroke-linecap="round"><g transform="translate(1492.25 10.948773448773295) rotate(0 0.7372979826297978 372.34094249352813)"><path d="M1.12 0.15 C1.39 124.29, 1.16 620.17, 0.81 744.32 M0.25 -0.82 C0.5 123.51, 0.1 620.96, 0.28 745.5" stroke="#000000" stroke-width="1" fill="none"></path></g></g><g transform="translate(1336.75 317.4487734487733) rotate(0 35.5 14.5)"><text x="0" y="20" font-family="Virgil, Segoe UI Emoji" font-size="20px" fill="#000000" text-anchor="start" style="white-space: pre;" direction="ltr">Import</text></g><g stroke-linecap="round" transform="translate(1284.25 153.9487734487733) rotate(0 94 29.5)"><path d="M14.75 0 M14.75 0 C76 -2.76, 139.58 0.6, 173.25 0 M14.75 0 C50.15 -0.58, 86.89 0.38, 173.25 0 M173.25 0 C181.88 0.87, 188.48 4.24, 188 14.75 M173.25 0 C183.05 -0.2, 185.99 7.14, 188 14.75 M188 14.75 C188.49 24.02, 188.84 32.27, 188 44.25 M188 14.75 C188.06 21.39, 188.75 29.16, 188 44.25 M188 44.25 C186.6 52.19, 182.94 60.63, 173.25 59 M188 44.25 C188.97 54.67, 180.99 60.99, 173.25 59 M173.25 59 C134.75 61.44, 92.41 59.58, 14.75 59 M173.25 59 C122.6 58.53, 71.7 58.83, 14.75 59 M14.75 59 C6.72 59.43, -1.19 53.47, 0 44.25 M14.75 59 C6.94 58.7, 1.55 54.64, 0 44.25 M0 44.25 C1.5 37.22, -0.63 26.86, 0 14.75 M0 44.25 C0.67 33.85, 0.99 23.89, 0 14.75 M0 14.75 C0.88 3.87, 6.06 0.7, 14.75 0 M0 14.75 C-1.52 3.54, 3.42 -1.36, 14.75 0" stroke="#000000" stroke-width="1" fill="none"></path></g><g stroke-opacity="0.3" fill-opacity="0.3" transform="translate(1535.25 43.948773448773295) rotate(0 47 25.5)"><text x="0" y="36" font-family="Virgil, Segoe UI Emoji" font-size="36px" fill="#495057" text-anchor="start" style="white-space: pre;" direction="ltr">Calls</text></g><g stroke-linecap="round"><g transform="translate(1259.25 115.94877344877318) rotate(0 605.2257292209193 -1.2950871919864824)"><path d="M-0.12 0.4 C467.26 0.37, 932.42 0.87, 1210.65 0.34 M-0.2 0.01 C393.97 -3.97, 787.94 -4.51, 1209.98 0.08" stroke="#000000" stroke-width="1" fill="none"></path></g></g><g transform="translate(1706.5 41.948773448773295) rotate(0 35.5 25.5)"><text x="0" y="36" font-family="Virgil, Segoe UI Emoji" font-size="36px" fill="#495057" text-anchor="start" style="white-space: pre;" direction="ltr">New</text></g><g stroke-linecap="round"><g transform="translate(1653.5 68.4487734487733) rotate(0 12.12224611826241 -0.05735882475039489)"><path d="M-1.98 0.3 C7.8 2.19, 18.6 1.32, 26.22 -1.41 M0.47 0.33 C6.53 -0.81, 11.59 -0.55, 25.1 0.82" stroke="#343a40" stroke-width="1" fill="none"></path></g><g transform="translate(1653.5 68.4487734487733) rotate(0 12.12224611826241 -0.05735882475039489)"><path d="M11.78 4.2 C16.67 4.25, 22.19 2.6, 25.87 -0.06 M13.31 4.22 C16.26 2.81, 18.61 2.24, 25.17 1.34" stroke="#343a40" stroke-width="1" fill="none"></path></g><g transform="translate(1653.5 68.4487734487733) rotate(0 12.12224611826241 -0.05735882475039489)"><path d="M12.56 -4.32 C17.18 -1.33, 22.44 -0.03, 25.87 -0.06 M14.09 -4.3 C16.93 -3.75, 19.1 -2.37, 25.17 1.34" stroke="#343a40" stroke-width="1" fill="none"></path></g></g><g stroke-linecap="round" transform="translate(1273.75 851.4487734487733) rotate(0 604.5 372)"><path d="M-0.33 0.38 C359.22 -1.17, 716.61 -0.59, 1208.73 0.66 M0.08 -0.04 C300.02 3.4, 600.49 3.67, 1209.21 -0.01 M1208.33 0.75 C1211.56 280.6, 1211.42 562.52, 1209.12 744.45 M1208.78 0.03 C1209.62 268.68, 1209.4 538.41, 1208.77 743.77 M1208.85 743.81 C948.54 746.81, 686.79 746.24, -0.48 744.73 M1209.32 744.37 C785.04 743.82, 360.64 743.45, 0.1 743.84 M0.16 743.54 C-1.62 484.36, -1.86 224.02, -0.2 -0.26 M-0.38 744.04 C-1.41 506.73, -1.57 269.99, -0.16 0.05" stroke="#000000" stroke-width="1" fill="none"></path></g><g transform="translate(1360.25 1011.4487734487733) rotate(0 26 14.5)"><text x="0" y="20" font-family="Virgil, Segoe UI Emoji" font-size="20px" fill="#000000" text-anchor="start" style="white-space: pre;" direction="ltr">Calls</text></g><g transform="translate(1356.25 1081.4487734487734) rotate(0 30.5 14.5)"><text x="0" y="20" font-family="Virgil, Segoe UI Emoji" font-size="20px" fill="#000000" text-anchor="start" style="white-space: pre;" direction="ltr">Users</text></g><g stroke-linecap="round"><g transform="translate(1508.25 850.9487734487733) rotate(0 0.5008299086584884 372.62129337336864)"><path d="M1.03 0.17 C0.99 124.41, -0.45 621.73, -0.69 746.04 M0.11 -0.79 C0.51 123.09, 1.91 620.3, 1.66 744.46" stroke="#000000" stroke-width="1" fill="none"></path></g></g><g transform="translate(1352.75 1157.4487734487734) rotate(0 35.5 14.5)"><text x="0" y="20" font-family="Virgil, Segoe UI Emoji" font-size="20px" fill="#000000" text-anchor="start" style="white-space: pre;" direction="ltr">Import</text></g><g stroke-linecap="round" transform="translate(1296.0833333333335 1065.61544011544) rotate(0 94 29.5)"><path d="M14.75 0 M14.75 0 C77.6 0.25, 138.63 -0.13, 173.25 0 M14.75 0 C66.8 -0.68, 118.73 0.09, 173.25 0 M173.25 0 C183.77 1.03, 187.93 6.48, 188 14.75 M173.25 0 C185.36 0.66, 186.07 7.08, 188 14.75 M188 14.75 C187.13 22.48, 188.84 30.85, 188 44.25 M188 14.75 C188.25 24.54, 187.28 33.24, 188 44.25 M188 44.25 C189.66 52.94, 181.93 57.32, 173.25 59 M188 44.25 C185.79 55.42, 182.67 58.46, 173.25 59 M173.25 59 C110.98 57.93, 53.39 60.15, 14.75 59 M173.25 59 C111.65 60.95, 48.78 60.59, 14.75 59 M14.75 59 C4.2 59.52, -0.82 55.07, 0 44.25 M14.75 59 C6.13 59.09, 0.46 52.76, 0 44.25 M0 44.25 C-0.97 35.08, -0.71 27.29, 0 14.75 M0 44.25 C0 34.09, -0.43 23.38, 0 14.75 M0 14.75 C1.38 4.11, 5.17 1.59, 14.75 0 M0 14.75 C-1.71 5.4, 4.1 0.2, 14.75 0" stroke="#000000" stroke-width="1" fill="none"></path></g><g stroke-opacity="0.3" fill-opacity="0.3" transform="translate(1551.25 883.9487734487733) rotate(0 55 25.5)"><text x="0" y="36" font-family="Virgil, Segoe UI Emoji" font-size="36px" fill="#495057" text-anchor="start" style="white-space: pre;" direction="ltr">Users</text></g><g stroke-linecap="round"><g transform="translate(1275.25 955.9487734487733) rotate(0 604.8972791496664 -0.41352552180228486)"><path d="M0.66 -0.41 C293.84 1.02, 587.38 1.53, 1209.71 -0.25 M-0.01 0.31 C411.62 -2.39, 822.12 -2.12, 1209.81 -0.39" stroke="#000000" stroke-width="1" fill="none"></path></g></g><g transform="translate(1736.166666666667 885.7821067821066) rotate(0 40 25.5)"><text x="0" y="36" font-family="Virgil, Segoe UI Emoji" font-size="36px" fill="#495057" text-anchor="start" style="white-space: pre;" direction="ltr">#011</text></g><g stroke-linecap="round"><g transform="translate(1681.5 911.4487734487733) rotate(0 13.188479958102107 -0.3839424531906843)"><path d="M0.58 -1.46 C7.07 -0.07, 12.61 -0.49, 25.8 0.69 M0.99 0.28 C7.95 0.75, 17.1 -1.17, 24.35 -0.29" stroke="#343a40" stroke-width="1" fill="none"></path></g><g transform="translate(1681.5 911.4487734487733) rotate(0 13.188479958102107 -0.3839424531906843)"><path d="M12.86 2.77 C15.88 2.56, 18.33 1.23, 24.85 0.14 M13.12 3.86 C16.14 2.78, 20.53 0.19, 23.94 -0.48" stroke="#343a40" stroke-width="1" fill="none"></path></g><g transform="translate(1681.5 911.4487734487733) rotate(0 13.188479958102107 -0.3839424531906843)"><path d="M13.08 -5.77 C16.1 -3.7, 18.5 -2.75, 24.85 0.14 M13.33 -4.68 C16.28 -2.76, 20.59 -2.35, 23.94 -0.48" stroke="#343a40" stroke-width="1" fill="none"></path></g></g><g stroke-opacity="0.6" fill-opacity="0.6" transform="translate(1751.658730158731 1018.0952380952386) rotate(0 120.5 33)"><text x="0" y="46" font-family="Virgil, Segoe UI Emoji" font-size="46.58823529411765px" fill="#495057" text-anchor="start" style="white-space: pre;" direction="ltr">Jane Doe</text></g><g transform="translate(1598.0651407621672 254.20833333333326) rotate(0 22.2276981376815 13.155168285566646)"><text x="0" y="18.310336571133305" font-family="Virgil, Segoe UI Emoji" font-size="18.145059704229848px" fill="#343a40" text-anchor="start" style="white-space: pre;" direction="ltr">User</text></g><g stroke-linecap="round" transform="translate(1605.6255823056008 287.4742761244205) rotate(0 157.63520618049688 20.035170090087092)"><path d="M10.02 0 M10.02 0 C122.13 1.16, 234.86 -0.01, 305.25 0 M10.02 0 C97.16 -1.31, 184.53 -1.78, 305.25 0 M305.25 0 C311.29 -0.32, 313.45 4.32, 315.27 10.02 M305.25 0 C314.07 -1.25, 317.02 1.7, 315.27 10.02 M315.27 10.02 C314.28 14.53, 313.66 19.76, 315.27 30.05 M315.27 10.02 C315.33 16.36, 315.03 23.07, 315.27 30.05 M315.27 30.05 C315.54 38.71, 311.8 42.01, 305.25 40.07 M315.27 30.05 C316.56 36.19, 310.4 41.69, 305.25 40.07 M305.25 40.07 C196.8 40.56, 90.61 39.62, 10.02 40.07 M305.25 40.07 C234.25 38.98, 164.08 37.98, 10.02 40.07 M10.02 40.07 C2.83 40.21, 0.83 35.26, 0 30.05 M10.02 40.07 C2.81 39.65, 0.25 37.03, 0 30.05 M0 30.05 C1.62 26.41, -0.7 21.9, 0 10.02 M0 30.05 C0.41 25.63, 0.55 21.05, 0 10.02 M0 10.02 C-1.41 1.58, 2.19 0.93, 10.02 0 M0 10.02 C-0.08 3.03, 4.29 0.15, 10.02 0" stroke="#495057" stroke-width="1" fill="none"></path></g><g stroke-opacity="0.6" fill-opacity="0.6" transform="translate(1756.8253968253985 1086.8333333333326) rotate(0 77.5 14.5)"><text x="0" y="20" font-family="Virgil, Segoe UI Emoji" font-size="20px" fill="#495057" text-anchor="start" style="white-space: pre;" direction="ltr">Avg. Score: 70</text></g><g stroke-opacity="0.6" fill-opacity="0.6" stroke-linecap="round" transform="translate(1586.325396825398 1007.8333333333334) rotate(0 56.24999999999977 56.249999999999886)"><path d="M30.56 6.76 C38.19 2.05, 49.33 -0.46, 58.85 0 C68.36 0.45, 79.77 4.35, 87.65 9.49 C95.54 14.63, 101.9 22.44, 106.18 30.83 C110.45 39.21, 113.83 50.35, 113.32 59.8 C112.81 69.25, 108.32 79.65, 103.12 87.52 C97.92 95.39, 90.52 102.8, 82.11 107.02 C73.7 111.23, 62.29 113.51, 52.67 112.81 C43.04 112.11, 32.16 108.23, 24.37 102.81 C16.57 97.4, 9.96 88.81, 5.9 80.32 C1.84 71.83, -0.69 61.06, 0.01 51.86 C0.7 42.67, 4.25 33.19, 10.06 25.15 C15.87 17.12, 29.64 7.43, 34.85 3.66 C40.06 -0.12, 40.94 1.58, 41.3 2.51 M55.64 -1.17 C64.55 -2.2, 76.43 1.67, 84.78 6.32 C93.12 10.97, 101.05 18.69, 105.71 26.71 C110.36 34.74, 112.53 45.02, 112.73 54.47 C112.92 63.92, 111.69 75.12, 106.85 83.41 C102.01 91.69, 91.87 99.36, 83.68 104.17 C75.49 108.98, 66.63 112.13, 57.7 112.27 C48.77 112.4, 38.29 109.54, 30.08 105 C21.86 100.46, 13.26 93.32, 8.43 85.05 C3.6 76.78, 1.27 64.6, 1.08 55.36 C0.89 46.13, 2.8 37.58, 7.3 29.65 C11.8 21.72, 20.24 12.61, 28.09 7.78 C35.94 2.95, 49.75 1.99, 54.4 0.67 C59.04 -0.64, 55.86 -0.72, 55.98 -0.11" stroke="#343a40" stroke-width="1" fill="none"></path></g><g stroke-linecap="round" transform="translate(1547.8253968253985 1191.166666666667) rotate(0 450 183.33333333333303)"><path d="M-0.82 -0.47 C194.36 6.02, 391.09 6.43, 899.08 -0.86 M0.45 0.36 C190.29 5.91, 380.51 6.41, 899.34 0.49 M899.89 -1.32 C900.07 90, 902.19 177.86, 898.65 366.32 M900.88 -0.83 C896.65 92.79, 898.84 184.55, 899.94 365.84 M899.58 365.77 C567.08 362.34, 235.42 364.7, -1.28 365.89 M899.94 366.02 C571.54 363.9, 243.58 363.86, -0.11 366.75 M-0.14 367.91 C3.34 266.66, 2.17 169.48, -0.35 1.85 M0.79 366.65 C3.98 260.66, 5.57 152.6, 0.16 -0.92" stroke="#000000" stroke-width="1" fill="none"></path></g><g stroke-linecap="round"><g transform="translate(1548.825396825398 1276) rotate(0 450.00393620710815 -0.37015418466182837)"><path d="M-0.24 -0.56 C293.59 1.92, 587.16 1.39, 899.57 -0.71 M0.18 -0.16 C269.2 -2.38, 538.92 -2.36, 900.24 -0.23" stroke="#495057" stroke-width="2" fill="none"></path></g></g><g stroke-linecap="round"><g stroke-opacity="0.5" fill-opacity="0.5" transform="translate(1550.825396825398 1449.6666666666665) rotate(0 450 0)"><path d="M0 0 C206.9 0, 413.81 0, 900 0" stroke="#495057" stroke-width="1.5" fill="none" stroke-dasharray="8 9"></path></g></g><g stroke-linecap="round"><g stroke-opacity="0.5" fill-opacity="0.5" transform="translate(1549.825396825398 1502.6666666666665) rotate(0 450 0)"><path d="M0 0 C295.7 0, 591.41 0, 900 0" stroke="#495057" stroke-width="1.5" fill="none" stroke-dasharray="8 9"></path></g></g><g transform="translate(1620.825396825398 1226.4999999999995) rotate(0 7 11.5)"><text x="0" y="16" font-family="Virgil, Segoe UI Emoji" font-size="16px" fill="#343a40" text-anchor="start" style="white-space: pre;" direction="ltr">#</text></g><g transform="translate(1736.992063492065 1226.1666666666665) rotate(0 24 11.5)"><text x="0" y="16" font-family="Virgil, Segoe UI Emoji" font-size="16px" fill="#343a40" text-anchor="start" style="white-space: pre;" direction="ltr">Client</text></g><g transform="translate(1875.992063492065 1223.1666666666665) rotate(0 20.5 11.5)"><text x="0" y="16" font-family="Virgil, Segoe UI Emoji" font-size="16px" fill="#343a40" text-anchor="start" style="white-space: pre;" direction="ltr">Type</text></g><g transform="translate(2013.492063492065 1225.1666666666665) rotate(0 37.5 11.5)"><text x="0" y="16" font-family="Virgil, Segoe UI Emoji" font-size="16px" fill="#343a40" text-anchor="start" style="white-space: pre;" direction="ltr">Duration</text></g><g transform="translate(2166.492063492065 1225.1666666666665) rotate(0 23 11.5)"><text x="0" y="16" font-family="Virgil, Segoe UI Emoji" font-size="16px" fill="#343a40" text-anchor="start" style="white-space: pre;" direction="ltr">Score</text></g><g transform="translate(2306.992063492065 1225.1666666666665) rotate(0 22.5 11.5)"><text x="0" y="16" font-family="Virgil, Segoe UI Emoji" font-size="16px" fill="#343a40" text-anchor="start" style="white-space: pre;" direction="ltr">Date</text></g><g stroke-linecap="round"><g transform="translate(1642.325396825398 1366.6666666666665) rotate(0 338.5 0)"><path d="M0 0 C157.97 0, 315.94 0, 677 0" stroke="#495057" stroke-width="4.5" fill="none" stroke-dasharray="8 12"></path></g></g><g stroke-linecap="round"><g transform="translate(1641.325396825398 1424.6666666666665) rotate(0 338.5 0)"><path d="M0 0 C143.93 0, 287.86 0, 677 0" stroke="#495057" stroke-width="4.5" fill="none" stroke-dasharray="8 12"></path></g></g><g stroke-linecap="round"><g transform="translate(1641.325396825398 1479.6666666666665) rotate(0 338.5 0)"><path d="M0 0 C200.73 0, 401.46 0, 677 0" stroke="#495057" stroke-width="4.5" fill="none" stroke-dasharray="8 12"></path></g></g><g stroke-linecap="round"><g transform="translate(1643.325396825398 1533.6666666666665) rotate(0 338.5 0)"><path d="M0 0 C147.11 0, 294.23 0, 677 0" stroke="#495057" stroke-width="4.5" fill="none" stroke-dasharray="8 12"></path></g></g><g stroke-linecap="round"><g stroke-opacity="0.5" fill-opacity="0.5" transform="translate(1549.825396825398 1395.6666666666665) rotate(0 450 0)"><path d="M0 0 C324.95 0, 649.9 0, 900 0" stroke="#495057" stroke-width="1.5" fill="none" stroke-dasharray="8 9"></path></g></g><g stroke-linecap="round"><g transform="translate(1642.4920634920645 1310) rotate(0 338.5 0)"><path d="M0 0 C200.05 0, 400.11 0, 677 0" stroke="#495057" stroke-width="4.5" fill="none" stroke-dasharray="8 12"></path></g></g><g stroke-linecap="round"><g stroke-opacity="0.5" fill-opacity="0.5" transform="translate(1549.9920634920645 1339) rotate(0 450 0)"><path d="M0 0 C196.25 0, 392.49 0, 900 0" stroke="#495057" stroke-width="1.5" fill="none" stroke-dasharray="8 9"></path></g></g><g transform="translate(1596.7420634920645 335.29406888660935) rotate(0 27.21758955634482 13.155168285566674)"><text x="0" y="18.310336571133305" font-family="Virgil, Segoe UI Emoji" font-size="18.14505970422984px" fill="#343a40" text-anchor="start" style="white-space: pre;" direction="ltr">Client</text></g><g stroke-linecap="round" transform="translate(1605.9691717021765 368.56001167769966) rotate(0 157.63520618049688 20.035170090087092)"><path d="M10.02 0 M10.02 0 C104.37 -1.24, 198.98 -2.79, 305.25 0 M10.02 0 C105.78 0.97, 201.74 0.49, 305.25 0 M305.25 0 C311.23 -1.05, 313.68 2.74, 315.27 10.02 M305.25 0 C311 0.48, 316.45 2.56, 315.27 10.02 M315.27 10.02 C315.54 16.97, 313.91 25.59, 315.27 30.05 M315.27 10.02 C316.15 15.66, 314.67 22.11, 315.27 30.05 M315.27 30.05 C315.31 34.94, 311.17 41.66, 305.25 40.07 M315.27 30.05 C316.42 36.66, 313.34 39.07, 305.25 40.07 M305.25 40.07 C201.22 37.13, 99.76 39.31, 10.02 40.07 M305.25 40.07 C236.38 42.39, 166.73 42.63, 10.02 40.07 M10.02 40.07 C5.01 40.7, 1.95 35.91, 0 30.05 M10.02 40.07 C2.87 40.28, 1.69 35.2, 0 30.05 M0 30.05 C-0.63 22.72, 0.12 17.3, 0 10.02 M0 30.05 C-0.53 25.29, 0.11 18.71, 0 10.02 M0 10.02 C-0.94 1.77, 1.98 1.49, 10.02 0 M0 10.02 C1.29 3.11, 4.25 0.1, 10.02 0" stroke="#495057" stroke-width="1" fill="none"></path></g><g transform="translate(1598.1596462814623 417.98639826786905) rotate(0 23.13495112289297 13.155168285566674)"><text x="0" y="18.310336571133305" font-family="Virgil, Segoe UI Emoji" font-size="18.145059704229855px" fill="#343a40" text-anchor="start" style="white-space: pre;" direction="ltr">Type</text></g><g stroke-linecap="round" transform="translate(1605.7200878248968 451.252341058953) rotate(0 157.63520618049688 20.035170090087092)"><path d="M10.02 0 M10.02 0 C90.54 -0.88, 170.18 0.07, 305.25 0 M10.02 0 C86.5 1.05, 164.18 1.36, 305.25 0 M305.25 0 C312.99 1.3, 315.31 1.47, 315.27 10.02 M305.25 0 C312.19 -2.18, 314.09 4.71, 315.27 10.02 M315.27 10.02 C316.74 12.44, 314.76 16.88, 315.27 30.05 M315.27 10.02 C316.01 15.94, 315.04 22.21, 315.27 30.05 M315.27 30.05 C313.62 35.99, 313.78 41.49, 305.25 40.07 M315.27 30.05 C316.29 36.51, 311.57 41.1, 305.25 40.07 M305.25 40.07 C238.45 37.97, 171.92 39.37, 10.02 40.07 M305.25 40.07 C215.74 41.96, 124.54 42.1, 10.02 40.07 M10.02 40.07 C5.24 40.17, -1.45 37.38, 0 30.05 M10.02 40.07 C5.18 38.24, 0.83 37.69, 0 30.05 M0 30.05 C1.6 23.01, -1.25 19.31, 0 10.02 M0 30.05 C0.41 24.75, -0.66 16.91, 0 10.02 M0 10.02 C-0.67 4.73, 2.02 0.61, 10.02 0 M0 10.02 C-2.27 1.92, 4.54 0.83, 10.02 0" stroke="#495057" stroke-width="1" fill="none"></path></g><g transform="translate(2033.530922721107 258.5638121536978) rotate(0 42.640890304940285 13.155168285566646)"><text x="0" y="18.310336571133305" font-family="Virgil, Segoe UI Emoji" font-size="18.145059704229833px" fill="#343a40" text-anchor="start" style="white-space: pre;" direction="ltr">Duration</text></g><g stroke-linecap="round" transform="translate(2041.0913642645542 291.82975494478967) rotate(0 157.63520618049688 20.035170090087092)"><path d="M10.02 0 M10.02 0 C112.22 -1.19, 212.62 -1.64, 305.25 0 M10.02 0 C83.99 -1.03, 158.78 -1.41, 305.25 0 M305.25 0 C310.06 0.23, 313.37 2.31, 315.27 10.02 M305.25 0 C313.3 -2.28, 314.31 1.7, 315.27 10.02 M315.27 10.02 C313.93 17.66, 316.93 26.62, 315.27 30.05 M315.27 10.02 C315.25 16.31, 314.87 25.19, 315.27 30.05 M315.27 30.05 C316.69 37.62, 311.74 39.75, 305.25 40.07 M315.27 30.05 C316.3 35.08, 309.97 38.91, 305.25 40.07 M305.25 40.07 C206.91 42.07, 107.73 42.91, 10.02 40.07 M305.25 40.07 C193.54 39.34, 80.5 38.1, 10.02 40.07 M10.02 40.07 C3.99 41.67, -1.59 37.46, 0 30.05 M10.02 40.07 C4.3 39.35, -0.22 38.85, 0 30.05 M0 30.05 C0.19 22.55, 0.25 13.53, 0 10.02 M0 30.05 C-1.11 22.87, 0.54 15.71, 0 10.02 M0 10.02 C0.61 1.36, 2.11 1.05, 10.02 0 M0 10.02 C0.83 4.38, 2.26 1.46, 10.02 0" stroke="#495057" stroke-width="1" fill="none"></path></g><g transform="translate(2034.853999991209 338.51548147546134) rotate(0 26.310336571133348 13.155168285566674)"><text x="0" y="18.310336571133305" font-family="Virgil, Segoe UI Emoji" font-size="18.14505970422983px" fill="#343a40" text-anchor="start" style="white-space: pre;" direction="ltr">Score</text></g><g stroke-linecap="round" transform="translate(2042.4144415346373 371.7814242665539) rotate(0 157.63520618049688 20.035170090087092)"><path d="M10.02 0 M10.02 0 C120.56 0.51, 228.97 -0.67, 305.25 0 M10.02 0 C89.94 -1.53, 171.28 -0.95, 305.25 0 M305.25 0 C312.29 -1.71, 314.25 4.67, 315.27 10.02 M305.25 0 C312.28 -0.44, 317.37 2.85, 315.27 10.02 M315.27 10.02 C315.73 15.21, 314.69 22.97, 315.27 30.05 M315.27 10.02 C315.76 17.31, 314.99 23.57, 315.27 30.05 M315.27 30.05 C315.93 35.04, 313.1 41.41, 305.25 40.07 M315.27 30.05 C316.1 37.84, 310.79 41.81, 305.25 40.07 M305.25 40.07 C218.58 41.55, 130.65 40.89, 10.02 40.07 M305.25 40.07 C191.28 41.77, 75.68 40.85, 10.02 40.07 M10.02 40.07 C5.04 40.52, 1.83 35.18, 0 30.05 M10.02 40.07 C3.13 39.99, -2.3 38.65, 0 30.05 M0 30.05 C2.03 25.23, -1.74 20.56, 0 10.02 M0 30.05 C0.16 26.2, -0.02 22.23, 0 10.02 M0 10.02 C-0.62 4.45, 1.59 0.96, 10.02 0 M0 10.02 C-1.03 2.1, 4.91 0.9, 10.02 0" stroke="#495057" stroke-width="1" fill="none"></path></g><g transform="translate(2033.5309227211164 419.60121702874187) rotate(0 64.5 13)"><text x="0" y="18" font-family="Virgil, Segoe UI Emoji" font-size="18.14505970422983px" fill="#343a40" text-anchor="start" style="white-space: pre;" direction="ltr">Date &amp; Time</text></g><g stroke-linecap="round" transform="translate(2041.0913642645264 452.8671598198256) rotate(0 157.63520618049688 20.035170090087092)"><path d="M10.02 0 M10.02 0 C110.72 0.86, 211.21 2, 305.25 0 M10.02 0 C69.56 0.25, 128.17 -0.26, 305.25 0 M305.25 0 C313.26 0.3, 314.88 5.16, 315.27 10.02 M305.25 0 C311.44 -0.1, 316.48 5.35, 315.27 10.02 M315.27 10.02 C316.3 16.75, 313.7 22.34, 315.27 30.05 M315.27 10.02 C316.24 17.63, 314.6 25.17, 315.27 30.05 M315.27 30.05 C316.61 37.45, 312.9 39.08, 305.25 40.07 M315.27 30.05 C317.01 36.65, 312.36 41.79, 305.25 40.07 M305.25 40.07 C199.07 42.01, 93.67 41.51, 10.02 40.07 M305.25 40.07 C193.81 39.23, 83.36 39.28, 10.02 40.07 M10.02 40.07 C1.78 39.88, -0.07 34.73, 0 30.05 M10.02 40.07 C5.26 38.05, -0.91 38.84, 0 30.05 M0 30.05 C-0.93 20.24, -0.12 13.3, 0 10.02 M0 30.05 C0.44 23.45, 0.49 16.6, 0 10.02 M0 10.02 C0.96 2.45, 2.26 1.36, 10.02 0 M0 10.02 C0.9 4.81, 1.94 2.12, 10.02 0" stroke="#495057" stroke-width="1" fill="none"></path></g><g stroke-linecap="round"><g transform="translate(1488.087648255775 628.6666666666667) rotate(0 484.9692435506731 1.2358941014703646)"><path d="M0.02 0.2 C286.35 -0.38, 571.89 -0.17, 970.18 0.31 M-0.24 -0.36 C238.21 3.85, 475.93 3.74, 969.88 0.27" stroke="#000000" stroke-width="1" fill="none"></path></g></g><g stroke-linecap="round" transform="translate(2320.658730158731 670.1666666666667) rotate(0 58.08333333333326 25.583333333333314)"><path d="M12.79 0 M12.79 0 C32.32 -0.78, 56.26 2.27, 103.37 0 M12.79 0 C42.92 0.97, 75.35 0.04, 103.37 0 M103.37 0 C112.55 0.12, 115.5 4.97, 116.17 12.79 M103.37 0 C111.79 0.03, 114.32 2.47, 116.17 12.79 M116.17 12.79 C114.44 21.85, 118.02 30.31, 116.17 38.37 M116.17 12.79 C116.62 21.72, 115.64 30.04, 116.17 38.37 M116.17 38.37 C114.38 45.87, 112.48 53.11, 103.37 51.17 M116.17 38.37 C116.27 44.87, 113.27 49.89, 103.37 51.17 M103.37 51.17 C71.63 51.12, 40.35 53, 12.79 51.17 M103.37 51.17 C84.74 51.84, 65.8 51.42, 12.79 51.17 M12.79 51.17 C2.62 50.88, 0.68 47.11, 0 38.37 M12.79 51.17 C4.23 52.39, -0.58 47.6, 0 38.37 M0 38.37 C0.37 30.68, 1.34 21.74, 0 12.79 M0 38.37 C0.38 31.75, -0.52 25.19, 0 12.79 M0 12.79 C0.58 4.31, 5.51 -0.59, 12.79 0 M0 12.79 C0.07 2.98, 3.74 -1.63, 12.79 0" stroke="#495057" stroke-width="2" fill="none"></path></g><g transform="translate(2350.8253968253975 683.8333333333334) rotate(0 26 14.5)"><text x="26" y="20" font-family="Virgil, Segoe UI Emoji" font-size="20px" fill="#343a40" text-anchor="middle" style="white-space: pre;" direction="ltr">Save</text></g><g stroke-linecap="round" transform="translate(2178.1587301587315 669.3333333333333) rotate(0 60.16666666666674 26.41666666666663)"><path d="M13.21 0 M13.21 0 C43.34 -0.88, 70 -0.4, 107.13 0 M13.21 0 C33.33 0.14, 51.76 -1.05, 107.13 0 M107.13 0 C114.29 0.53, 121.65 3.08, 120.33 13.21 M107.13 0 C116.67 0.14, 119.56 5.22, 120.33 13.21 M120.33 13.21 C118.78 21.29, 120.48 27.24, 120.33 39.62 M120.33 13.21 C121.18 19.33, 119.61 25.41, 120.33 39.62 M120.33 39.62 C121.68 48.4, 115.31 51.54, 107.13 52.83 M120.33 39.62 C118.28 47.24, 116.59 55.07, 107.13 52.83 M107.13 52.83 C77.42 54.45, 50.43 54.97, 13.21 52.83 M107.13 52.83 C78.44 52.34, 48.03 53.87, 13.21 52.83 M13.21 52.83 C4.63 53.1, -0.14 47.86, 0 39.62 M13.21 52.83 C2.51 52.51, 0.79 48.67, 0 39.62 M0 39.62 C0.47 32.32, -1.77 24.42, 0 13.21 M0 39.62 C0.01 30.92, -0.1 23.54, 0 13.21 M0 13.21 C0.76 3.57, 3.35 -1.53, 13.21 0 M0 13.21 C0.66 4.45, 5.84 -0.67, 13.21 0" stroke="#495057" stroke-width="2" fill="none"></path></g><g transform="translate(2204.492063492065 684.6666666666665) rotate(0 34 14.5)"><text x="34" y="20" font-family="Virgil, Segoe UI Emoji" font-size="20px" fill="#343a40" text-anchor="middle" style="white-space: pre;" direction="ltr">Cancel</text></g><g stroke-linecap="round"><g transform="translate(1882.658730158731 286.5) rotate(0 -0.4671766458327511 20.080562570753216)"><path d="M-1.89 1.31 C1.26 13.27, 1.42 28.3, 0.4 40.7 M-0.88 -0.72 C0.14 14.82, 0.82 31.9, -0.18 40.88" stroke="#495057" stroke-width="1" fill="none"></path></g></g><g stroke-linecap="round"><g transform="translate(1901.3253968253975 297.33333333333337) rotate(0 0 11.666666666666629)"><path d="M0 0 C0 8.16, 0 16.32, 0 23.33 M0 0 C0 4.91, 0 9.82, 0 23.33" stroke="#495057" stroke-width="1" fill="none"></path></g><g transform="translate(1901.3253968253975 297.33333333333337) rotate(0 0 11.666666666666629)"><path d="M-3.99 12.37 C-2.59 16.2, -1.2 20.04, 0 23.33 M-3.99 12.37 C-3.15 14.68, -2.31 16.98, 0 23.33" stroke="#495057" stroke-width="1" fill="none"></path></g><g transform="translate(1901.3253968253975 297.33333333333337) rotate(0 0 11.666666666666629)"><path d="M3.99 12.37 C2.59 16.2, 1.2 20.04, 0 23.33 M3.99 12.37 C3.15 14.68, 2.31 16.98, 0 23.33" stroke="#495057" stroke-width="1" fill="none"></path></g></g><g stroke-linecap="round"><g transform="translate(1883.4087301587315 366.9166666666664) rotate(0 0.1045922627672553 21.12503645631176)"><path d="M-0.14 -0.38 C0.61 16.5, -0.67 31.43, 0.39 42.63 M0.46 -0.1 C-0.25 8.81, 0.05 19.22, -0.25 40.48" stroke="#495057" stroke-width="1" fill="none"></path></g></g><g stroke-linecap="round"><g transform="translate(1902.5753968253975 377.25) rotate(0 0 11.666666666666686)"><path d="M0 0 C0 6.17, 0 12.34, 0 23.33 M0 0 C0 8.56, 0 17.12, 0 23.33" stroke="#495057" stroke-width="1" fill="none"></path></g><g transform="translate(1902.5753968253975 377.25) rotate(0 0 11.666666666666686)"><path d="M-3.99 12.37 C-2.93 15.27, -1.88 18.17, 0 23.33 M-3.99 12.37 C-2.53 16.39, -1.06 20.42, 0 23.33" stroke="#495057" stroke-width="1" fill="none"></path></g><g transform="translate(1902.5753968253975 377.25) rotate(0 0 11.666666666666686)"><path d="M3.99 12.37 C2.93 15.27, 1.88 18.17, 0 23.33 M3.99 12.37 C2.53 16.39, 1.06 20.42, 0 23.33" stroke="#495057" stroke-width="1" fill="none"></path></g></g><g stroke-linecap="round"><g transform="translate(1886.408730158731 452.41666666666674) rotate(0 -1.0540761504937564 20.444125610558956)"><path d="M-1.14 0.72 C-0.42 9.8, 0.43 24.72, -1.83 40.81 M-0.41 0.07 C-0.93 12.58, 0.01 23.8, -0.37 40.54" stroke="#495057" stroke-width="1" fill="none"></path></g></g><g stroke-linecap="round"><g transform="translate(1902.908730158731 460.91666666666674) rotate(0 0 11.666666666666686)"><path d="M0 0 C0 5.48, 0 10.95, 0 23.33 M0 0 C0 6.73, 0 13.46, 0 23.33" stroke="#495057" stroke-width="1" fill="none"></path></g><g transform="translate(1902.908730158731 460.91666666666674) rotate(0 0 11.666666666666686)"><path d="M-3.99 12.37 C-3.05 14.94, -2.12 17.52, 0 23.33 M-3.99 12.37 C-2.84 15.53, -1.69 18.69, 0 23.33" stroke="#495057" stroke-width="1" fill="none"></path></g><g transform="translate(1902.908730158731 460.91666666666674) rotate(0 0 11.666666666666686)"><path d="M3.99 12.37 C3.05 14.94, 2.12 17.52, 0 23.33 M3.99 12.37 C2.84 15.53, 1.69 18.69, 0 23.33" stroke="#495057" stroke-width="1" fill="none"></path></g></g><g stroke-linecap="round" transform="translate(2525.9087301587306 10.000000000000028) rotate(0 604.5 372)"><path d="M-0.26 0.77 C454 0.23, 909.31 -1.08, 1209.13 -0.65 M0.03 -0.12 C321.5 -4.02, 643.11 -3.77, 1208.7 0.28 M1208.29 -0.19 C1206.89 259.77, 1206.09 517.44, 1209.65 743.34 M1208.82 0.23 C1206.18 246.09, 1206.55 492.08, 1208.88 743.61 M1208.95 743.78 C876.43 745.1, 544.71 744.41, 0.24 743.68 M1209.31 743.97 C758.12 740.49, 307.52 740.68, 0.33 744.1 M-0.47 744.48 C0.07 579.09, 0.52 413.81, 0.79 0.28 M-0.12 744.01 C-2.37 485.09, -1.91 225.66, 0.35 0.15" stroke="#000000" stroke-width="1" fill="none"></path></g><g transform="translate(2612.4087301587306 170) rotate(0 26 14.5)"><text x="0" y="20" font-family="Virgil, Segoe UI Emoji" font-size="20px" fill="#000000" text-anchor="start" style="white-space: pre;" direction="ltr">Calls</text></g><g transform="translate(2608.4087301587306 239.9999999999999) rotate(0 30.5 14.5)"><text x="0" y="20" font-family="Virgil, Segoe UI Emoji" font-size="20px" fill="#000000" text-anchor="start" style="white-space: pre;" direction="ltr">Users</text></g><g stroke-linecap="round"><g transform="translate(2760.4087301587306 9.500000000000028) rotate(0 -0.1737218494993158 372.8840607593768)"><path d="M-1.01 1.07 C-0.95 124.9, -0.24 620.28, -0.04 744.11 M0.66 0.59 C0.59 125.05, -0.82 621.14, -1 745.18" stroke="#000000" stroke-width="1" fill="none"></path></g></g><g transform="translate(2604.9087301587306 315.9999999999999) rotate(0 35.5 14.5)"><text x="0" y="20" font-family="Virgil, Segoe UI Emoji" font-size="20px" fill="#000000" text-anchor="start" style="white-space: pre;" direction="ltr">Import</text></g><g stroke-linecap="round" transform="translate(2552.4087301587306 152.5) rotate(0 94 29.5)"><path d="M14.75 0 M14.75 0 C47.48 0.38, 81.57 -0.63, 173.25 0 M14.75 0 C71.34 -0.18, 127.69 0.02, 173.25 0 M173.25 0 C182.55 -1.49, 189.38 5.88, 188 14.75 M173.25 0 C181.28 1.28, 185.95 4.36, 188 14.75 M188 14.75 C186.45 26.04, 186.6 34.71, 188 44.25 M188 14.75 C188.4 20.29, 188.29 27.6, 188 44.25 M188 44.25 C189.3 53.49, 181.14 58.5, 173.25 59 M188 44.25 C188.89 54.24, 182.94 58.38, 173.25 59 M173.25 59 C128.46 60.77, 82.48 61.63, 14.75 59 M173.25 59 C110.12 59.72, 46.77 59.92, 14.75 59 M14.75 59 C5.1 60.66, 0.48 52.53, 0 44.25 M14.75 59 C4.26 56.98, -1.36 55.47, 0 44.25 M0 44.25 C1.18 40.24, 0.54 33.27, 0 14.75 M0 44.25 C-0.05 32.87, 0.27 22.95, 0 14.75 M0 14.75 C-1.19 6.68, 5.65 0.09, 14.75 0 M0 14.75 C0.03 2.99, 5.41 1.23, 14.75 0" stroke="#000000" stroke-width="1" fill="none"></path></g><g stroke-opacity="0.3" fill-opacity="0.3" transform="translate(2803.4087301587306 42.5) rotate(0 47 25.5)"><text x="0" y="36" font-family="Virgil, Segoe UI Emoji" font-size="36px" fill="#495057" text-anchor="start" style="white-space: pre;" direction="ltr">Calls</text></g><g stroke-linecap="round"><g transform="translate(2527.4087301587306 114.49999999999989) rotate(0 604.7320717426021 1.0216873964229478)"><path d="M-0.65 -0.27 C359.86 -0.19, 718.83 -1.05, 1209.94 -0.7 M0.28 0.19 C378.29 3.84, 756.85 3.52, 1210.11 0.34" stroke="#000000" stroke-width="1" fill="none"></path></g></g><g transform="translate(2974.6587301587306 40.5) rotate(0 40 25.5)"><text x="0" y="36" font-family="Virgil, Segoe UI Emoji" font-size="36px" fill="#495057" text-anchor="start" style="white-space: pre;" direction="ltr">#131</text></g><g stroke-linecap="round"><g transform="translate(2921.6587301587306 67) rotate(0 12.237213127780706 0.2707784092824568)"><path d="M1.18 1.52 C8.05 -0.54, 15.68 -1.66, 25.26 -0.53 M-0.78 0.56 C4.74 -0.36, 11.55 0.74, 24.27 -0.9" stroke="#343a40" stroke-width="1" fill="none"></path></g><g transform="translate(2921.6587301587306 67) rotate(0 12.237213127780706 0.2707784092824568)"><path d="M13.68 5.32 C16.66 2.35, 20.07 -0.02, 24.43 -1.23 M12.45 4.72 C14.9 2.98, 18.18 2.48, 23.82 -1.46" stroke="#343a40" stroke-width="1" fill="none"></path></g><g transform="translate(2921.6587301587306 67) rotate(0 12.237213127780706 0.2707784092824568)"><path d="M12.94 -3.2 C16.08 -3.47, 19.73 -3.14, 24.43 -1.23 M11.71 -3.8 C14.39 -3.63, 17.84 -2.21, 23.82 -1.46" stroke="#343a40" stroke-width="1" fill="none"></path></g></g><g transform="translate(2871.7238709208978 241.25955988456008) rotate(0 22.2276981376815 13.155168285566646)"><text x="0" y="18.310336571133305" font-family="Virgil, Segoe UI Emoji" font-size="18.145059704229848px" fill="#343a40" text-anchor="start" style="white-space: pre;" direction="ltr">User</text></g><g stroke-linecap="round" transform="translate(2879.2843124643314 274.5255026756471) rotate(0 157.63520618049688 20.035170090087092)"><path d="M10.02 0 M10.02 0 C88.64 -2.12, 166.95 -2.95, 305.25 0 M10.02 0 C102.91 1.99, 194.19 2.05, 305.25 0 M305.25 0 C310.15 -0.48, 315.83 5.05, 315.27 10.02 M305.25 0 C310.26 -2.07, 317.13 1.44, 315.27 10.02 M315.27 10.02 C314.21 17.77, 313.38 24.19, 315.27 30.05 M315.27 10.02 C314.43 15.89, 315.79 22.33, 315.27 30.05 M315.27 30.05 C315.14 36.19, 311.61 41.98, 305.25 40.07 M315.27 30.05 C316.97 36.96, 312.62 39.16, 305.25 40.07 M305.25 40.07 C196.33 38.44, 84.41 37.99, 10.02 40.07 M305.25 40.07 C225.44 41.31, 145.06 41.23, 10.02 40.07 M10.02 40.07 C2.16 41.28, -1.95 37.86, 0 30.05 M10.02 40.07 C2.39 41.62, 2.26 37.55, 0 30.05 M0 30.05 C-0.73 23.14, -0.74 16.81, 0 10.02 M0 30.05 C0.49 22.37, 0.13 13.76, 0 10.02 M0 10.02 C0.43 4.41, 4.32 -0.11, 10.02 0 M0 10.02 C-1.08 2.43, 2.7 0.31, 10.02 0" stroke="#495057" stroke-width="1" fill="none"></path></g><g transform="translate(2984.374449917971 283.5980325277618) rotate(0 46.723528738391906 13.155168285566674)"><text x="0" y="18.310336571133305" font-family="Virgil, Segoe UI Emoji" font-size="18.145059704229844px" fill="#343a40" text-anchor="start" style="white-space: pre;" direction="ltr">Jane Doe</text></g><g transform="translate(2870.400793650795 322.34529543783594) rotate(0 27.21758955634482 13.155168285566674)"><text x="0" y="18.310336571133305" font-family="Virgil, Segoe UI Emoji" font-size="18.14505970422984px" fill="#343a40" text-anchor="start" style="white-space: pre;" direction="ltr">Client</text></g><g stroke-linecap="round" transform="translate(2879.6279018609066 355.61123822892625) rotate(0 157.63520618049688 20.035170090087092)"><path d="M10.02 0 M10.02 0 C99.34 0.35, 190.86 -0.95, 305.25 0 M10.02 0 C119.42 1.05, 227.81 1.92, 305.25 0 M305.25 0 C313.64 -1.45, 313.47 4.95, 315.27 10.02 M305.25 0 C310.03 0.7, 313.36 2, 315.27 10.02 M315.27 10.02 C316.31 15.24, 316.69 19.66, 315.27 30.05 M315.27 10.02 C315.29 14.02, 314.95 17.99, 315.27 30.05 M315.27 30.05 C317.18 38.21, 312.13 40.67, 305.25 40.07 M315.27 30.05 C314.36 38.4, 314.18 38.47, 305.25 40.07 M305.25 40.07 C193.55 38.55, 83.11 40.22, 10.02 40.07 M305.25 40.07 C208.9 39, 114.29 38.72, 10.02 40.07 M10.02 40.07 C4.47 39.24, 1.34 38.69, 0 30.05 M10.02 40.07 C4.16 41.18, 1.74 37.38, 0 30.05 M0 30.05 C0.71 26.34, -1.2 20.96, 0 10.02 M0 30.05 C-0.85 23.52, 0.53 17.05, 0 10.02 M0 10.02 C-0.11 2.4, 2.54 -0.56, 10.02 0 M0 10.02 C0.31 4.91, 2.28 -0.44, 10.02 0" stroke="#495057" stroke-width="1" fill="none"></path></g><g transform="translate(2983.0513726478857 364.68376808103983) rotate(0 41 13)"><text x="0" y="18" font-family="Virgil, Segoe UI Emoji" font-size="18.145059704229844px" fill="#343a40" text-anchor="start" style="white-space: pre;" direction="ltr">Joe Doe</text></g><g transform="translate(2871.818376440193 405.03762481909564) rotate(0 23.13495112289297 13.155168285566674)"><text x="0" y="18.310336571133305" font-family="Virgil, Segoe UI Emoji" font-size="18.145059704229855px" fill="#343a40" text-anchor="start" style="white-space: pre;" direction="ltr">Type</text></g><g stroke-linecap="round" transform="translate(2879.3788179836274 438.3035676101796) rotate(0 157.63520618049688 20.035170090087092)"><path d="M10.02 0 M10.02 0 C71.69 1.6, 136.29 -0.58, 305.25 0 M10.02 0 C115.29 1.16, 219.61 -0.14, 305.25 0 M305.25 0 C313.55 -1.65, 315.88 1.68, 315.27 10.02 M305.25 0 C310.59 -1.03, 316.57 1.36, 315.27 10.02 M315.27 10.02 C314.69 15.02, 314.78 24.67, 315.27 30.05 M315.27 10.02 C315.1 17.12, 316 22.41, 315.27 30.05 M315.27 30.05 C315.87 35.94, 313.39 42.03, 305.25 40.07 M315.27 30.05 C313.67 38.49, 311.76 38.93, 305.25 40.07 M305.25 40.07 C229.16 40.62, 149.46 39.84, 10.02 40.07 M305.25 40.07 C241.89 41.81, 179.67 41.89, 10.02 40.07 M10.02 40.07 C5.3 40.78, 0.96 38.24, 0 30.05 M10.02 40.07 C3.99 39.4, 0.07 36.05, 0 30.05 M0 30.05 C1.59 24.06, -0.08 16.63, 0 10.02 M0 30.05 C0.45 25.67, -0.51 20.99, 0 10.02 M0 10.02 C-0.56 3.61, 4.71 -0.92, 10.02 0 M0 10.02 C-0.44 1.41, 2.82 1.52, 10.02 0" stroke="#495057" stroke-width="1" fill="none"></path></g><g transform="translate(2984.4689554372653 447.3760974622986) rotate(0 41 13)"><text x="0" y="18" font-family="Virgil, Segoe UI Emoji" font-size="18.145059704229844px" fill="#343a40" text-anchor="start" style="white-space: pre;" direction="ltr">Outgoing</text></g><g transform="translate(3309.189652879838 244.6150387049246) rotate(0 42.64089030494006 13.155168285566646)"><text x="0" y="18.310336571133305" font-family="Virgil, Segoe UI Emoji" font-size="18.145059704229833px" fill="#343a40" text-anchor="start" style="white-space: pre;" direction="ltr">Duration</text></g><g stroke-linecap="round" transform="translate(3316.7500944232843 277.88098149601626) rotate(0 157.63520618049688 20.035170090087092)"><path d="M10.02 0 M10.02 0 C75.38 -0.23, 141.75 -1.41, 305.25 0 M10.02 0 C106.18 2.19, 203.06 1.82, 305.25 0 M305.25 0 C310.27 -1.16, 314.38 4.47, 315.27 10.02 M305.25 0 C309.95 1.07, 315.4 4.84, 315.27 10.02 M315.27 10.02 C315.85 15.57, 314.95 20.31, 315.27 30.05 M315.27 10.02 C315.56 16, 315.06 22.12, 315.27 30.05 M315.27 30.05 C317.23 35.34, 313.46 39.92, 305.25 40.07 M315.27 30.05 C314.13 35.85, 311.26 40.28, 305.25 40.07 M305.25 40.07 C191.76 37.07, 78.25 39.27, 10.02 40.07 M305.25 40.07 C246 39.89, 186.02 39.52, 10.02 40.07 M10.02 40.07 C4.85 40.64, -0.58 36.79, 0 30.05 M10.02 40.07 C2.66 40.89, 1.97 35.36, 0 30.05 M0 30.05 C-0.05 20.6, 0.36 15.58, 0 10.02 M0 30.05 C-0.39 22.78, 0.15 16.74, 0 10.02 M0 10.02 C-0.92 2.95, 1.67 -0.45, 10.02 0 M0 10.02 C1.52 1.26, 3.27 -0.83, 10.02 0" stroke="#495057" stroke-width="1" fill="none"></path></g><g transform="translate(3470.1735652102598 287.7868446814613) rotate(0 16.5 13)"><text x="0" y="18" font-family="Virgil, Segoe UI Emoji" font-size="18.145059704229844px" fill="#343a40" text-anchor="start" style="white-space: pre;" direction="ltr">120</text></g><g transform="translate(3310.5127301499397 324.56670802668793) rotate(0 26.31033657113312 13.155168285566674)"><text x="0" y="18.310336571133305" font-family="Virgil, Segoe UI Emoji" font-size="18.14505970422983px" fill="#343a40" text-anchor="start" style="white-space: pre;" direction="ltr">Score</text></g><g stroke-linecap="round" transform="translate(3318.073171693368 357.8326508177805) rotate(0 157.63520618049688 20.035170090087092)"><path d="M10.02 0 M10.02 0 C75.1 2.36, 142.17 0.87, 305.25 0 M10.02 0 C72.25 1.19, 133.6 1.48, 305.25 0 M305.25 0 C313.06 -1.72, 316.2 3.45, 315.27 10.02 M305.25 0 C313.43 -0.68, 313.04 2.76, 315.27 10.02 M315.27 10.02 C314.74 16.48, 317.2 25.07, 315.27 30.05 M315.27 10.02 C316.06 17.2, 314.64 23.2, 315.27 30.05 M315.27 30.05 C315.12 35.74, 311.17 39.49, 305.25 40.07 M315.27 30.05 C315.48 38.64, 312.49 38.28, 305.25 40.07 M305.25 40.07 C226.04 37.33, 145.87 38.16, 10.02 40.07 M305.25 40.07 C197.2 41.41, 88.64 40.63, 10.02 40.07 M10.02 40.07 C3.4 39.48, 0.71 38.45, 0 30.05 M10.02 40.07 C1.97 42.09, 0.85 36.84, 0 30.05 M0 30.05 C1.24 25, 0.06 17.05, 0 10.02 M0 30.05 C0.74 24.38, -0.14 18.79, 0 10.02 M0 10.02 C-0.45 4.66, 1.53 -0.06, 10.02 0 M0 10.02 C-0.83 3.98, 1.42 0.01, 10.02 0" stroke="#495057" stroke-width="1" fill="none"></path></g><g transform="translate(3470.663309147045 367.7385140032237) rotate(0 13.5 13)"><text x="0" y="18" font-family="Virgil, Segoe UI Emoji" font-size="18.145059704229844px" fill="#343a40" text-anchor="start" style="white-space: pre;" direction="ltr">40</text></g><g transform="translate(3309.189652879847 405.65244357996846) rotate(0 64.5 13)"><text x="0" y="18" font-family="Virgil, Segoe UI Emoji" font-size="18.14505970422983px" fill="#343a40" text-anchor="start" style="white-space: pre;" direction="ltr">Date &amp; Time</text></g><g stroke-linecap="round" transform="translate(3316.750094423257 438.9183863710522) rotate(0 157.63520618049688 20.035170090087092)"><path d="M10.02 0 M10.02 0 C90.36 -3.21, 174.06 -3.1, 305.25 0 M10.02 0 C107.27 1.69, 204.54 1.62, 305.25 0 M305.25 0 C312.04 1.3, 314.68 1.4, 315.27 10.02 M305.25 0 C311.36 0.89, 315.43 3.19, 315.27 10.02 M315.27 10.02 C316.72 15.68, 315.84 20.16, 315.27 30.05 M315.27 10.02 C316.23 17.41, 314.97 24.57, 315.27 30.05 M315.27 30.05 C314.69 36.91, 313.59 40.55, 305.25 40.07 M315.27 30.05 C313.48 36.07, 309.91 38.71, 305.25 40.07 M305.25 40.07 C198.21 42.3, 93.85 41.83, 10.02 40.07 M305.25 40.07 C202.24 40.71, 99.44 40.95, 10.02 40.07 M10.02 40.07 C5.05 38.88, 1.76 37.47, 0 30.05 M10.02 40.07 C3.44 40.1, -1.93 37.23, 0 30.05 M0 30.05 C-1.04 22.18, -0.66 16.16, 0 10.02 M0 30.05 C-0.74 22.45, 0.75 14.39, 0 10.02 M0 10.02 C-0.06 2.62, 3.9 -1.67, 10.02 0 M0 10.02 C0.01 5.3, 2.75 -0.4, 10.02 0" stroke="#495057" stroke-width="1" fill="none"></path></g><g transform="translate(3376.0068985436055 448.8242495565046) rotate(0 87.5 13)"><text x="0" y="18" font-family="Virgil, Segoe UI Emoji" font-size="18.145059704229844px" fill="#343a40" text-anchor="start" style="white-space: pre;" direction="ltr">01.01.2021 - 15:30</text></g><g stroke-linecap="round"><g transform="translate(2756.2463784145057 627.2178932178934) rotate(0 485.2864917367697 0.08137008526978207)"><path d="M0.65 -0.66 C374.41 2.83, 747.88 3.13, 970.69 -0.69 M-0.12 -0.39 C335.98 -2.37, 672.19 -2.55, 970.13 -0.06" stroke="#000000" stroke-width="1" fill="none"></path></g></g><g stroke-linecap="round" transform="translate(3588.817460317463 668.7178932178934) rotate(0 58.08333333333303 25.583333333333314)"><path d="M12.79 0 M12.79 0 C31.73 -0.12, 52.31 -1.89, 103.37 0 M12.79 0 C36.39 0.83, 59.71 0.48, 103.37 0 M103.37 0 C109.96 -0.5, 116.94 4.4, 116.17 12.79 M103.37 0 C111.76 -0.62, 115.79 6.46, 116.17 12.79 M116.17 12.79 C115.4 23.81, 118.15 30.54, 116.17 38.37 M116.17 12.79 C115.77 22.13, 116.24 32.88, 116.17 38.37 M116.17 38.37 C116.65 45.35, 111.33 49.41, 103.37 51.17 M116.17 38.37 C114.8 48.29, 109.66 52.46, 103.37 51.17 M103.37 51.17 C80.65 53.02, 58.02 52.62, 12.79 51.17 M103.37 51.17 C79.19 51.76, 53.7 51.78, 12.79 51.17 M12.79 51.17 C5 51.26, 0.02 45.23, 0 38.37 M12.79 51.17 C4.76 52.4, 1.13 46.77, 0 38.37 M0 38.37 C0.37 33.27, -0.82 25.04, 0 12.79 M0 38.37 C-0.85 32.81, -0.3 27.59, 0 12.79 M0 12.79 C-1.67 4.28, 5.97 -0.51, 12.79 0 M0 12.79 C-0.4 4.84, 5.9 -1.37, 12.79 0" stroke="#495057" stroke-width="2" fill="none"></path></g><g transform="translate(3618.984126984129 682.38455988456) rotate(0 26 14.5)"><text x="26" y="20" font-family="Virgil, Segoe UI Emoji" font-size="20px" fill="#343a40" text-anchor="middle" style="white-space: pre;" direction="ltr">Save</text></g><g stroke-linecap="round" transform="translate(3446.317460317461 667.88455988456) rotate(0 60.166666666666515 26.41666666666663)"><path d="M13.21 0 M13.21 0 C47.31 -1.45, 83.84 0.85, 107.13 0 M13.21 0 C33.96 -0.35, 52.44 -0.3, 107.13 0 M107.13 0 C116.71 0.14, 120.21 3.86, 120.33 13.21 M107.13 0 C115.56 2.2, 122.03 4.63, 120.33 13.21 M120.33 13.21 C122.18 20.54, 121.76 30.5, 120.33 39.62 M120.33 13.21 C120.32 20.65, 120.47 25.66, 120.33 39.62 M120.33 39.62 C119.76 46.67, 114.75 54.04, 107.13 52.83 M120.33 39.62 C118.09 49.73, 114.98 54.38, 107.13 52.83 M107.13 52.83 C71.24 53.85, 31.76 53.35, 13.21 52.83 M107.13 52.83 C81.13 54.52, 56.69 53.68, 13.21 52.83 M13.21 52.83 C4.43 51.16, 0.43 49.5, 0 39.62 M13.21 52.83 C5.53 52.7, -1.08 47.52, 0 39.62 M0 39.62 C-0.95 32.05, -1.71 24.8, 0 13.21 M0 39.62 C-0.12 30.24, -0.6 20.3, 0 13.21 M0 13.21 C1.7 3.89, 4.06 0.5, 13.21 0 M0 13.21 C1.64 3.04, 4.7 0.43, 13.21 0" stroke="#495057" stroke-width="2" fill="none"></path></g><g transform="translate(3472.650793650797 683.2178932178932) rotate(0 34 14.5)"><text x="34" y="20" font-family="Virgil, Segoe UI Emoji" font-size="20px" fill="#343a40" text-anchor="middle" style="white-space: pre;" direction="ltr">Cancel</text></g><g stroke-linecap="round"><g transform="translate(3156.317460317462 273.5512265512267) rotate(0 -0.38828135035555533 20.082807477253198)"><path d="M-0.89 1.13 C-2.06 14.42, -0.23 28.3, -0.59 38.89 M-0.06 -0.27 C0 12.18, 0.9 22.55, 0.3 40.44" stroke="#495057" stroke-width="1" fill="none"></path></g></g><g stroke-linecap="round"><g transform="translate(3174.984126984128 284.38455988455996) rotate(0 0 11.666666666666629)"><path d="M0 0 C0 5.06, 0 10.12, 0 23.33 M0 0 C0 7.9, 0 15.81, 0 23.33" stroke="#495057" stroke-width="1" fill="none"></path></g><g transform="translate(3174.984126984128 284.38455988455996) rotate(0 0 11.666666666666629)"><path d="M-3.99 12.37 C-3.12 14.75, -2.26 17.13, 0 23.33 M-3.99 12.37 C-2.64 16.08, -1.29 19.8, 0 23.33" stroke="#495057" stroke-width="1" fill="none"></path></g><g transform="translate(3174.984126984128 284.38455988455996) rotate(0 0 11.666666666666629)"><path d="M3.99 12.37 C3.12 14.75, 2.26 17.13, 0 23.33 M3.99 12.37 C2.64 16.08, 1.29 19.8, 0 23.33" stroke="#495057" stroke-width="1" fill="none"></path></g></g><g stroke-linecap="round"><g transform="translate(3157.067460317462 353.967893217893) rotate(0 -0.49588877661153674 21.36953085117665)"><path d="M-1.72 0.93 C-0.07 11.18, -0.77 17.81, -0.5 41.61 M-0.16 0.96 C0.71 12.63, 0.27 24.67, 0.73 41.81" stroke="#495057" stroke-width="1" fill="none"></path></g></g><g stroke-linecap="round"><g transform="translate(3175.234126984128 363.3012265512267) rotate(0 0 11.666666666666629)"><path d="M0 0 C0 5.96, 0 11.92, 0 23.33 M0 0 C0 6.85, 0 13.7, 0 23.33" stroke="#495057" stroke-width="1" fill="none"></path></g><g transform="translate(3175.234126984128 363.3012265512267) rotate(0 0 11.666666666666629)"><path d="M-3.99 12.37 C-2.97 15.17, -1.95 17.97, 0 23.33 M-3.99 12.37 C-2.82 15.59, -1.65 18.81, 0 23.33" stroke="#495057" stroke-width="1" fill="none"></path></g><g transform="translate(3175.234126984128 363.3012265512267) rotate(0 0 11.666666666666629)"><path d="M3.99 12.37 C2.97 15.17, 1.95 17.97, 0 23.33 M3.99 12.37 C2.82 15.59, 1.65 18.81, 0 23.33" stroke="#495057" stroke-width="1" fill="none"></path></g></g><g stroke-linecap="round"><g transform="translate(3157.9007936507955 439.8012265512267) rotate(0 0.022361903451383114 20.848108168380975)"><path d="M0.11 1.3 C-0.94 12.62, -0.85 29.9, 0.14 40.71 M0.74 0.1 C0.23 10.75, 0.66 23.27, -0.69 41.6" stroke="#495057" stroke-width="1" fill="none"></path></g></g><g stroke-linecap="round"><g transform="translate(3176.567460317462 448.96789321789345) rotate(0 0 11.666666666666629)"><path d="M0 0 C0 4.99, 0 9.99, 0 23.33 M0 0 C0 6.62, 0 13.25, 0 23.33" stroke="#495057" stroke-width="1" fill="none"></path></g><g transform="translate(3176.567460317462 448.96789321789345) rotate(0 0 11.666666666666629)"><path d="M-3.99 12.37 C-3.14 14.72, -2.28 17.06, 0 23.33 M-3.99 12.37 C-2.86 15.48, -1.73 18.59, 0 23.33" stroke="#495057" stroke-width="1" fill="none"></path></g><g transform="translate(3176.567460317462 448.96789321789345) rotate(0 0 11.666666666666629)"><path d="M3.99 12.37 C3.14 14.72, 2.28 17.06, 0 23.33 M3.99 12.37 C2.86 15.48, 1.73 18.59, 0 23.33" stroke="#495057" stroke-width="1" fill="none"></path></g></g><g stroke-linecap="round" transform="translate(2818.158730158731 663.0833333333334) rotate(0 60.16666666666674 26.41666666666663)"><path d="M13.21 0 M13.21 0 C36.29 2.51, 59.56 0.61, 107.13 0 M13.21 0 C32.23 -0.14, 51.3 -0.25, 107.13 0 M107.13 0 C116.17 0.27, 118.55 5.57, 120.33 13.21 M107.13 0 C114.9 -1.88, 121.32 6.49, 120.33 13.21 M120.33 13.21 C122.27 16.71, 118.83 25.27, 120.33 39.62 M120.33 13.21 C120.15 21, 120.51 27.79, 120.33 39.62 M120.33 39.62 C120.79 48.56, 114.94 54.22, 107.13 52.83 M120.33 39.62 C121.2 50.27, 115.88 51.44, 107.13 52.83 M107.13 52.83 C72.02 53.95, 39.8 51.84, 13.21 52.83 M107.13 52.83 C77.76 54.1, 49.73 52.76, 13.21 52.83 M13.21 52.83 C4.63 53.48, -1.45 49.02, 0 39.62 M13.21 52.83 C2.9 54.27, -0.21 49.77, 0 39.62 M0 39.62 C-1.43 33.26, 0.52 24.89, 0 13.21 M0 39.62 C0.81 29.94, -0.09 21.69, 0 13.21 M0 13.21 C1.1 3.15, 5.66 -0.02, 13.21 0 M0 13.21 C0.46 6.28, 5.73 1.36, 13.21 0" stroke="#495057" stroke-width="2" fill="none"></path></g><g transform="translate(2842.1587301587333 678.4166666666666) rotate(0 35.5 14.5)"><text x="35.5" y="20" font-family="Virgil, Segoe UI Emoji" font-size="20px" fill="#343a40" text-anchor="middle" style="white-space: pre;" direction="ltr">Delete</text></g><g stroke-linecap="round"><g transform="translate(3595.139249639251 438.4913419913421) rotate(0 -0.09502536244690418 20.36233067807433)"><path d="M-1.77 1.33 C-1.56 16.19, -1.79 31, 1.58 41.57 M0.04 -0.84 C-0.12 8.94, -0.55 18.23, -0.53 40.64" stroke="#495057" stroke-width="1" fill="none"></path></g></g><g stroke-linecap="round" transform="translate(3603.472582972585 450.57467532467535) rotate(0 8.75 8.750000000000114)"><path d="M4.38 0 M4.38 0 C6.27 0, 8.17 0, 13.13 0 M13.13 0 C16.04 0, 17.5 1.46, 17.5 4.38 M17.5 4.38 C17.5 6.41, 17.5 8.44, 17.5 13.13 M17.5 13.13 C17.5 16.04, 16.04 17.5, 13.13 17.5 M13.13 17.5 C10.14 17.5, 7.15 17.5, 4.38 17.5 M4.38 17.5 C1.46 17.5, 0 16.04, 0 13.13 M0 13.13 C0 9.69, 0 6.25, 0 4.38 M0 4.38 C0 1.46, 1.46 0, 4.38 0" stroke="#495057" stroke-width="1.5" fill="none" stroke-dasharray="8 9"></path></g><g stroke-linecap="round"><g transform="translate(3608.972582972585 449.741341991342) rotate(0 0 8.75)"><path d="M0 0 C0 6.16, 0 12.33, 0 17.5 M0 0 C0 4.32, 0 8.65, 0 17.5" stroke="#495057" stroke-width="1" fill="none"></path></g></g><g stroke-linecap="round"><g transform="translate(3612.139249639252 448.15800865800884) rotate(89.99999999999994 0 8.75)"><path d="M0 0 C0 4.46, 0 8.91, 0 17.5 M0 0 C0 4.44, 0 8.87, 0 17.5" stroke="#495057" stroke-width="1" fill="none"></path></g></g><g stroke-linecap="round"><g transform="translate(2322.88993316625 454.220722260196) rotate(0 -0.06662212328319583 20.14172164412838)"><path d="M1.55 -1.57 C1.86 12.58, 0.65 27.62, -1.73 41.86 M-0.15 0.97 C1.03 9.87, -0.56 19.01, -0.51 40.23" stroke="#495057" stroke-width="1" fill="none"></path></g></g><g stroke-linecap="round" transform="translate(2331.223266499584 466.30405559352903) rotate(0 8.750000000000227 8.750000000000114)"><path d="M4.38 0 M4.38 0 C7.4 0, 10.43 0, 13.13 0 M13.13 0 C16.04 0, 17.5 1.46, 17.5 4.38 M17.5 4.38 C17.5 7.87, 17.5 11.37, 17.5 13.13 M17.5 13.13 C17.5 16.04, 16.04 17.5, 13.13 17.5 M13.13 17.5 C11.11 17.5, 9.09 17.5, 4.38 17.5 M4.38 17.5 C1.46 17.5, 0 16.04, 0 13.13 M0 13.13 C0 10.05, 0 6.98, 0 4.38 M0 4.38 C0 1.46, 1.46 0, 4.38 0" stroke="#495057" stroke-width="1.5" fill="none" stroke-dasharray="8 9"></path></g><g stroke-linecap="round"><g transform="translate(2336.723266499584 465.47072226019577) rotate(0 0 8.75)"><path d="M0 0 C0 4.48, 0 8.95, 0 17.5 M0 0 C0 5.21, 0 10.42, 0 17.5" stroke="#495057" stroke-width="1" fill="none"></path></g></g><g stroke-linecap="round"><g transform="translate(2339.88993316625 463.8873889268625) rotate(89.99999999999994 0 8.75)"><path d="M0 0 C0 6.61, 0 13.21, 0 17.5 M0 0 C0 4.99, 0 9.98, 0 17.5" stroke="#495057" stroke-width="1" fill="none"></path></g></g><g stroke-linecap="round"><g transform="translate(401.4218595731784 2161.235513024986) rotate(0 0 -15)"><path d="M0 0 C0 -9.77, 0 -19.54, 0 -30 M0 0 C0 -10.4, 0 -20.81, 0 -30" stroke="#495057" stroke-width="1" fill="none"></path></g><g transform="translate(401.4218595731784 2161.235513024986) rotate(0 0 -15)"><path d="M5.13 -15.9 C3.46 -20.5, 1.79 -25.09, 0 -30 M5.13 -15.9 C3.35 -20.79, 1.57 -25.68, 0 -30" stroke="#495057" stroke-width="1" fill="none"></path></g><g transform="translate(401.4218595731784 2161.235513024986) rotate(0 0 -15)"><path d="M-5.13 -15.9 C-3.46 -20.5, -1.79 -25.09, 0 -30 M-5.13 -15.9 C-3.35 -20.79, -1.57 -25.68, 0 -30" stroke="#495057" stroke-width="1" fill="none"></path></g></g><g stroke-linecap="round"><g transform="translate(394.24004139136014 2160.9627857522587) rotate(0 8.18181818181813 0)"><path d="M0 0 C5.19 0, 10.38 0, 16.36 0 M0 0 C3.99 0, 7.98 0, 16.36 0" stroke="#495057" stroke-width="1" fill="none"></path></g></g></svg>